<?xml version="1.0" encoding="UTF-8"?>
<svg width="64px" height="64px" viewBox="0 0 64 64" version="1.1" xmlns="http://www.w3.org/2000/svg" xmlns:xlink="http://www.w3.org/1999/xlink">
    <title>favico-v2</title>
    <g id="favico-v2" stroke="none" fill="none" fill-rule="evenodd" stroke-width="1">
        <g id="Group" transform="translate(8, 2)" fill="#EA7050">
            <path d="M43.8807303,16.6974566 C44.2468544,17.0291377 44.3831043,17.3835984 44.3981168,17.8482081 C44.3994246,17.9613621 44.4001465,18.0745229 44.4003848,18.1876833 C44.4017658,18.3137431 44.4031752,18.4398026 44.4046095,18.5658618 C44.4051653,18.6314833 44.4057211,18.6971048 44.4062938,18.7647149 C44.4177266,19.9742244 44.4592404,21.1653152 44.6245168,22.3657549 C44.6360957,22.4546397 44.6360957,22.4546397 44.6479084,22.5453202 C45.0128513,25.2813322 45.9235979,27.9306915 46.8013257,30.5521673 C46.8220702,30.6141853 46.8428146,30.6762032 46.8641877,30.7401006 C46.9915218,31.1207976 46.9915218,31.1207976 47.1193001,31.5013653 C47.5905222,32.9027547 47.5905222,32.9027547 47.7476612,33.5785895 C47.7623365,33.6387942 47.7770118,33.6989988 47.7921319,33.7610279 C48.0424165,34.8023861 48.1720644,35.9499 47.5541249,36.8954103 C47.0521437,37.5420756 46.4000294,37.8078907 45.578442,37.9482711 C45.16128,38.0088289 44.7634306,38.0457992 44.3418021,38.0430816 C44.2939728,38.0430016 44.2461435,38.0429215 44.1968648,38.042839 C44.0459462,38.0425254 43.8950334,38.0418159 43.7441165,38.0410926 C43.6410237,38.0408084 43.5379309,38.0405503 43.4348379,38.0403191 C43.1837446,38.0396994 42.9326554,38.0387249 42.6815643,38.0375565 C42.6886036,38.0746055 42.6956429,38.1116546 42.7028954,38.1498263 C42.7351231,38.3198314 42.7671648,38.4898664 42.799204,38.6599024 C42.810279,38.7181744 42.821354,38.7764464 42.8327646,38.8364842 C43.1590369,40.5721824 43.1590369,40.5721824 42.6436161,41.2765841 C42.1642394,41.8222911 41.3922738,42.0630219 40.6778946,42.2242472 C40.6177845,42.2242472 40.5576744,42.2242472 40.4957428,42.2242472 C40.5098213,42.2672629 40.5238998,42.3102786 40.538405,42.3545978 C40.6029939,42.5526716 40.6670108,42.7509023 40.7310222,42.9491388 C40.7531721,43.0167824 40.7753221,43.0844261 40.7981432,43.1541195 C41.0986599,44.0883821 41.3312425,45.0946306 40.8600464,46.0148996 C40.3710442,46.8513644 39.6489168,47.1887019 38.6907086,47.4538535 C38.6163928,47.4737637 38.542077,47.4936739 38.4655092,47.5141875 C37.3464421,47.814951 36.3452294,48.247609 35.4562097,48.9568985 C35.4083878,48.9932182 35.3605658,49.0295379 35.3112947,49.0669582 C34.4648471,49.735027 33.8616004,50.6228454 33.2627985,51.4816427 C32.8067723,52.1341814 32.3428863,52.7671273 31.8131738,53.3698968 C31.7768426,53.4118686 31.7405114,53.4538405 31.7030793,53.4970843 C30.9038328,54.4126353 29.7218211,55.0086328 28.4889035,55.2192542 C27.5285562,55.3049129 26.6611713,55.1486956 25.7414472,54.8974731 C25.5376276,55.5317207 25.4737059,56.1331251 25.4552637,56.7942082 C25.4271579,57.7910084 25.3315621,58.6451167 24.5230699,59.3657223 C23.8182615,59.9179066 22.8724661,60.0406121 21.9769767,59.9893942 C20.2752175,59.8304253 18.8635654,59.1376912 17.7369667,57.9411336 C17.2637484,57.3722694 16.7802649,56.5997159 16.8160091,55.8592804 C16.8906302,55.4842606 17.0188944,55.1111048 17.3560607,54.8727207 C17.7465763,54.6350809 18.1095681,54.5509657 18.5768098,54.6145886 C19.0362127,54.77904 19.3373113,55.052194 19.5482861,55.4632421 C19.5976871,55.6053036 19.6389434,55.7482064 19.6803936,55.8924309 C19.8658559,56.3985918 20.3835234,56.7920627 20.8764763,57.0332511 C21.4733015,57.291362 22.0494026,57.3868567 22.7055839,57.3868567 C22.7064693,57.34509 22.7073547,57.3033232 22.708267,57.2602908 C22.7923112,53.6902595 22.7923112,53.6902595 24.0603379,52.5424596 C24.5233643,52.1970013 25.0340505,52.0669945 25.6200127,52.1252049 C25.8880596,52.1872115 26.1476336,52.2696429 26.4093371,52.3515125 C27.205898,52.5840782 27.9603769,52.7720513 28.7545415,52.4328418 C29.5767161,51.9782273 30.0736977,51.2601971 30.5874736,50.5296148 C31.2423393,49.6053892 31.9124637,48.6936482 32.7239328,47.8819373 C32.797606,47.8032136 32.8709886,47.7242526 32.9440328,47.6450216 C34.3110526,46.1950254 36.2130126,45.3264259 38.1884867,44.8267847 C38.2485968,44.8267847 38.3087069,44.8267847 38.3706385,44.8267847 C38.2018632,44.1730785 37.9980415,43.551845 37.7243316,42.9294694 C37.6420313,42.7334393 37.6420313,42.7334393 37.6420313,42.6202855 C37.5942191,42.6338712 37.5942191,42.6338712 37.545441,42.6477314 C35.6647849,43.022259 33.3442048,42.4931659 31.7524565,41.5453244 C31.0292121,41.0693383 30.3164042,40.4502366 30.1130903,39.6217098 C30.053066,39.2575067 30.149091,38.9237987 30.3642606,38.6185748 C30.6006874,38.337113 30.8338504,38.2083374 31.2060011,38.1507103 C31.6456172,38.113855 31.9402288,38.129692 32.2989119,38.3770179 C32.4855777,38.529743 32.6254956,38.6901384 32.7656759,38.8791379 C33.287765,39.5419614 34.2258678,39.8427747 35.0560924,40.0005098 C36.6817311,40.2305627 38.2935936,40.0511356 39.8784753,39.7024589 C40.0100047,39.6782867 40.0100047,39.6782867 40.1921564,39.6782867 C40.1792813,39.6176034 40.1664062,39.5569201 40.1531409,39.4943979 C40.1047517,39.2652036 40.0575049,39.0358147 40.0105679,38.8063587 C39.9902553,38.7078287 39.9696497,38.6093508 39.9487241,38.5109322 C39.572591,36.7385856 39.572591,36.7385856 40.0901704,35.9994621 C40.3429135,35.6944595 40.656718,35.5547504 41.0421982,35.4350191 C41.1379611,35.4306392 41.2339163,35.4295193 41.3297899,35.4303918 C41.3882444,35.4307613 41.446699,35.4311308 41.5069248,35.4315115 C41.5702901,35.4321585 41.6336554,35.4328055 41.6989408,35.433472 C41.8344872,35.4341889 41.9700338,35.4348881 42.1055804,35.4355716 C42.3181685,35.4369618 42.5307508,35.4385297 42.7433341,35.4404475 C43.582314,35.4475387 44.4004551,35.4339524 45.2316895,35.3218653 C44.8453948,33.5889907 44.2822484,31.8964976 43.6682199,30.222872 C43.3487169,29.3512463 43.0915554,28.4636931 42.8365594,27.5741897 C42.8056523,27.4668881 42.7742283,27.359716 42.742756,27.2525571 C42.2312769,25.5073121 41.8797425,23.7047052 41.7242149,21.9010673 C41.7110289,21.7539088 41.694886,21.6073303 41.677832,21.4605245 C41.576387,20.5267987 41.5815047,19.5779741 41.5746175,18.6399221 C41.5738613,18.550268 41.5728026,18.4606155 41.5714267,18.3709678 C41.5616452,17.6920061 41.6006191,17.2211885 42.124436,16.7036447 C42.6479308,16.2727717 43.3305644,16.3595738 43.8807303,16.6974566 Z" id="Path"></path>
            <path d="M32.0370687,11.3155789 C32.0906036,11.315376 32.1441386,11.3149097 32.1992958,11.3149097 C33.9761629,11.3113478 35.7417636,11.4883382 37.506985,11.6576889 C39.2428821,11.8240641 40.9746839,11.9731925 42.7215286,11.9771529 C43.9554261,11.9817928 43.9554261,11.9817928 44.3749179,12.3350957 C44.4695446,12.4300545 44.5473812,12.526833 44.6245168,12.6345279 C44.6620857,12.6858714 44.6996545,12.7372149 44.7383617,12.7901143 C44.8597426,13.1168587 44.8809292,13.4284561 44.7376502,13.7523637 C44.5226943,14.1045935 44.2542442,14.4117139 43.8351924,14.5581425 C43.5441573,14.6138154 43.2588971,14.6246192 42.9628561,14.6262116 C42.8886778,14.626803 42.8886778,14.626803 42.8130011,14.6274064 C42.650281,14.6283993 42.4875738,14.6287497 42.3248504,14.6288636 C42.2684886,14.6289206 42.2121269,14.6289776 42.1540572,14.6290363 C40.0081153,14.6275846 37.8724096,14.3999707 35.7409405,14.1864975 C32.4077583,13.8535631 28.5368553,13.5982193 25.7352806,15.6616131 C24.5967072,16.5752738 23.8443705,17.6945728 23.2520393,18.9711408 C23.2215146,19.0361954 23.19099,19.10125 23.1595403,19.1682759 C22.2729186,21.2052684 22.1153481,23.5075783 21.9851723,25.6808647 C21.9595449,26.1063876 21.9324101,26.531825 21.9045785,26.9572273 C21.8972199,27.0711076 21.8900436,27.1849983 21.8830547,27.2988988 C21.8448269,27.9197868 21.7949028,28.5365999 21.706358,29.153215 C21.6992362,29.2034358 21.6921144,29.2536566 21.6847767,29.3053992 C21.5688782,30.0661975 21.3324745,30.793656 20.6791452,31.2978332 C20.0782216,31.7037001 19.4504831,31.7122204 18.7321607,31.6887884 C18.298562,31.6819823 17.9412056,31.7616844 17.5597956,31.9555396 C16.737691,32.8067003 16.7838356,34.3822048 16.8311884,35.4597715 C16.8721033,36.1617956 16.8721033,36.1617956 17.1841076,36.7893286 C17.3855203,36.9211027 17.5817362,36.9950621 17.8112031,37.0750862 C18.3357631,37.264602 18.7243186,37.5588564 19.1232652,37.9244027 C19.1614602,37.9592638 19.1996551,37.9941249 19.2390075,38.0300424 C20.5510035,39.3248126 20.8876384,41.4833063 21.0055005,43.1860545 C21.0104852,43.2511775 21.0154699,43.3163005 21.0206057,43.3833969 C21.0604663,43.9274986 21.0786022,44.4688696 21.0776022,45.0141957 C21.0775454,45.0548776 21.0774885,45.0955595 21.0774299,45.1374742 C21.0755069,45.775478 21.0566495,46.4027954 20.9447832,47.0332838 C20.9353127,47.0874717 20.9258423,47.1416595 20.9160848,47.1974894 C20.6024978,48.9312283 19.8812682,50.5613789 18.6375271,51.8988973 C18.5828287,51.9600745 18.5282842,52.0213715 18.4738751,52.0827723 C17.4800779,53.2010697 17.4800779,53.2010697 16.9374437,53.3133199 C16.8610537,53.3308233 16.7846638,53.3483268 16.7059591,53.3663607 C16.3735556,53.3950739 16.0732928,53.2885473 15.7838156,53.1435891 C15.6359911,53.025288 15.523149,52.900986 15.419512,52.7475508 C15.3854653,52.6983223 15.3854653,52.6983223 15.3507307,52.6480993 C15.2747223,52.4649742 15.2797321,52.2996677 15.2791033,52.1039886 C15.2780859,52.0312033 15.2770684,51.958418 15.27602,51.8834271 C15.3127598,51.5322483 15.4754964,51.3189245 15.730688,51.0679241 C17.2515815,49.5336002 18.2198828,47.8504127 18.2227048,45.726048 C18.2229069,45.6717402 18.223109,45.6174324 18.2233172,45.5614789 C18.2236235,45.4466463 18.2237671,45.3318132 18.2237573,45.2169802 C18.2238884,45.0455421 18.2249877,44.8741256 18.2261439,44.7026912 C18.2292682,43.7225624 18.1712595,42.7507398 17.9544579,41.7893123 C17.9413773,41.7304933 17.9282967,41.6716743 17.9148197,41.6110729 C17.6851836,40.4791156 17.6851836,40.4791156 16.9981609,39.5651329 C16.8408464,39.4935105 16.6866179,39.4437339 16.5190638,39.3965072 C16.2985005,39.3291184 16.093559,39.2405447 15.886276,39.1443421 C15.8176347,39.1129088 15.7489933,39.0814755 15.6782719,39.0490896 C14.8995268,38.6310852 14.5022519,37.8719256 14.2428778,37.0949765 C14.0036369,36.255145 13.998133,35.3373869 14.0230149,34.4732117 C14.0247368,34.4064068 14.0264587,34.3396019 14.0282328,34.2707725 C14.0959124,32.7872554 14.4538086,31.2113236 15.6016638,30.1167903 C16.4255602,29.4425461 17.3127621,29.1722617 18.3922863,29.1222745 C18.463102,29.1187054 18.463102,29.1187054 18.5353484,29.1150643 C18.6503522,29.1092985 18.7653727,29.1038218 18.8803962,29.0984061 C18.919158,28.6817636 18.957705,28.2651043 18.9959985,27.8484242 C19.0137976,27.6548169 19.0316631,27.4612153 19.0496959,27.2676268 C19.1184135,26.5294953 19.1868533,25.7923155 19.2231843,25.0521148 C19.2475146,24.5825038 19.3019689,24.1163879 19.3585446,23.6493433 C19.3639708,23.6039254 19.369397,23.5585076 19.3749877,23.5117134 C19.4070406,23.2435129 19.439797,22.9753952 19.4732196,22.70734 C19.4858903,22.6055472 19.4983661,22.5037334 19.5108122,22.4019166 C19.8648642,19.5530958 20.7728136,16.7788184 22.8829922,14.6319577 C22.9876832,14.5237703 23.0860068,14.4135756 23.1837324,14.3000104 C23.4328989,14.0276505 23.7396987,13.8155371 24.0413638,13.5963352 C24.0992041,13.5535246 24.1570444,13.510714 24.2166374,13.4666061 C24.6261718,13.1705925 25.0523149,12.9180298 25.5087174,12.6901931 C25.5824011,12.6533396 25.6558149,12.6160132 25.7289361,12.5781996 C26.8023257,12.0246075 27.9949556,11.6879011 29.2023313,11.5029898 C29.2532058,11.4946119 29.3040802,11.4862339 29.3564963,11.4776021 C30.2481121,11.3353034 31.1348866,11.316922 32.0370687,11.3155789 Z" id="Path"></path>
            <path d="M36.0026651,2.45068564 C36.0581085,2.48535073 36.0581085,2.48535073 36.1146719,2.52071613 C36.3427405,2.66413768 36.5677563,2.811314 36.7919896,2.95987775 C36.856874,3.00254248 36.9217585,3.04520721 36.9886091,3.08916481 C37.6828153,3.54710754 38.3701929,4.01517739 39.0468296,4.49541021 C39.6351331,4.91269259 40.2380813,5.30299944 40.8600464,5.67556901 C40.9003741,5.69988244 40.9407019,5.72419586 40.9822517,5.74924606 C41.835121,6.25944353 42.9134883,6.80369585 43.9566269,6.69395323 C44.5423553,6.55871396 44.9198946,6.29663513 45.2924068,5.86298 C45.5730724,5.54500339 45.9661955,5.41433265 46.396702,5.37500422 C46.8215943,5.40745656 47.1263789,5.54730144 47.4137162,5.84176366 C47.6579007,6.12828713 47.7517296,6.35494973 47.73936,6.72135767 C47.6516238,7.40511314 47.1977081,7.91054469 46.6509556,8.34529154 C45.5795871,9.09788816 44.3295382,9.42061469 42.9914062,9.27770539 C42.1879459,9.15933834 41.4616787,8.90013969 40.7386118,8.56099098 C40.7007495,8.5438795 40.6628872,8.52676803 40.6238776,8.50913802 C39.5820343,8.03779295 38.6345411,7.38689783 37.7027486,6.75053014 C37.6600825,6.72139414 37.6174165,6.69225814 37.5734575,6.66223923 C37.1377525,6.36428435 36.7023844,6.06590839 36.2702006,5.76352841 C33.4863976,3.82110436 33.4863976,3.82110436 30.1738076,3.01645465 C30.1193328,3.01346448 30.0648581,3.0104743 30.0087325,3.00739351 C29.2150829,2.9845317 28.4542331,3.13912128 27.745117,3.46906986 C27.6771018,3.50043026 27.6090866,3.53179066 27.5390103,3.56410138 C26.5598991,4.03828303 25.7927977,4.77349295 25.3771436,5.73214591 C25.638971,5.88501237 25.9022444,6.03552817 26.1664681,6.18476112 C26.2119713,6.21048759 26.2574746,6.23621406 26.3043567,6.26272012 C27.295538,6.88909906 27.295538,6.88909906 28.4205965,7.06523915 C28.5916829,7.01463434 28.6530653,6.9795361 28.7811053,6.85661183 C28.7998897,6.82160487 28.8186741,6.78659791 28.8380278,6.75053014 C28.8013982,6.73601683 28.7647686,6.72150353 28.727029,6.70655044 C28.5001755,6.58755181 28.3931323,6.40369717 28.2915724,6.18476112 C28.2233674,5.84639498 28.2984714,5.52321897 28.4737242,5.2229538 C28.7208549,4.93346056 29.0296042,4.74230004 29.4257519,4.69387137 C29.9709129,4.67839258 30.3118111,4.78632865 30.7278526,5.11333606 C31.2762566,5.59922522 31.5669031,6.18124389 31.5930737,6.88843633 C31.5639802,7.6813912 31.2154913,8.35632993 30.5988285,8.90045238 C30.4242834,9.02727845 30.2433341,9.13588302 30.0523731,9.23991379 C29.9954328,9.27218583 29.9954328,9.27218583 29.9373423,9.30510983 C29.0714796,9.75522979 28.0131155,9.71765083 27.0781165,9.49890229 C26.0999586,9.237571 25.2033733,8.68190959 24.3297708,8.2109214 C24.1934375,8.13856065 24.0568217,8.06666015 23.9199292,7.99522196 C23.8846889,7.97679773 23.8494486,7.95837349 23.8131404,7.93939095 C22.6060748,7.31759258 21.2318729,6.92673684 19.8518724,6.86368394 C19.7948148,6.86069376 19.7377572,6.85770358 19.6789705,6.85462279 C18.7763849,6.82913681 17.8831121,7.05924114 17.1803127,7.59918365 C16.6187504,8.15547941 16.3631765,8.76466009 16.3796038,9.52522933 C16.4166141,10.0691107 16.6120924,10.6199189 17.0588782,10.9937977 C17.6364457,11.3763834 18.1722714,11.5116803 18.8803962,11.4464129 C19.1288516,11.3830652 19.3574182,11.3203368 19.5015623,11.1122556 C19.5694741,10.9400803 19.5557773,10.7792484 19.5482861,10.5977594 C19.5144742,10.5935294 19.4806622,10.5892994 19.4458257,10.5849412 C19.0195489,10.5165033 18.6924776,10.3692256 18.4318948,10.0381785 C18.246957,9.73101365 18.2283508,9.46766015 18.2955181,9.12675999 C18.405576,8.76712241 18.6847157,8.54934235 19.0018307,8.33468337 C19.5650401,8.15974883 20.1819448,8.26290802 20.7019141,8.50441407 C21.4138919,8.8696233 21.930679,9.40054075 22.1674297,10.132105 C22.3580697,10.8992859 22.2457736,11.6452026 21.8277925,12.3260069 C21.741386,12.4526205 21.6495875,12.5718486 21.5519559,12.6911048 C21.5267534,12.7245072 21.501551,12.7579097 21.4755849,12.7923244 C20.9113302,13.4818173 19.9547207,13.8528506 19.062548,13.9923735 C17.6435046,14.1177452 16.3723921,13.7318803 15.25586,12.9101193 C14.3769827,12.2101334 13.7739513,11.1418574 13.6131734,10.070887 C13.6062696,9.98259403 13.6014942,9.89414975 13.597994,9.8056828 C13.5948633,9.74011769 13.5917326,9.67455257 13.588507,9.60700064 C13.5506991,8.10826902 14.0820142,6.86367858 15.1896877,5.76772748 C16.5537814,4.5679611 18.2552108,4.2754184 20.0743443,4.29915909 C20.8257618,4.32108028 21.5805578,4.43099128 22.3080756,4.60812201 C22.5258022,4.66614272 22.5258022,4.66614272 22.7663012,4.65718479 C22.865272,4.53675915 22.865272,4.53675915 22.948453,4.37430028 C23.437961,3.54542248 24.1035151,2.76563776 24.8914055,2.16780114 C24.9467412,2.12477175 25.0020769,2.08174236 25.0590895,2.03740906 C28.4746029,-0.526246372 32.6167245,0.328872615 36.0026651,2.45068564 Z" id="Path"></path>
            <path d="M18.4098374,15.466909 C18.6693624,15.6862719 18.7857709,16.0039728 18.8407876,16.3202036 C18.8597826,16.7103658 18.7175704,17.0289993 18.462965,17.3304107 C17.5652903,18.2267452 16.029934,18.5695443 14.7592118,18.6246073 C14.5542082,18.6304038 14.3495382,18.6323269 14.1444494,18.6316794 C14.0716599,18.6316794 13.9988703,18.6316794 13.923875,18.6316794 C12.8881314,18.5958514 11.8487682,18.363363 10.8356253,18.174064 C9.09442008,17.8504296 7.37032915,17.864132 5.82618402,18.8014101 C5.61774949,18.9458771 5.41734528,19.0977569 5.21901137,19.2540253 C5.16885114,19.2912407 5.16885114,19.2912407 5.11767757,19.3292079 C4.85015201,19.532336 4.65169446,19.7476051 4.46004554,20.0142774 C4.43151184,20.0536101 4.40297813,20.0929428 4.37357977,20.1334674 C3.54161382,21.3091473 3.15157362,22.7413207 3.45976713,24.1404822 C3.76277333,25.2976128 4.52718465,26.2892266 5.60608394,26.9308036 C6.41870535,27.3457929 7.33319392,27.5763962 8.25487466,27.6274067 C8.35231875,27.6342987 8.35231875,27.6342987 8.45173142,27.6413299 C9.42277087,27.6785608 10.4474141,27.4238286 11.1768931,26.8141137 C11.2196276,26.7751685 11.2623621,26.7362233 11.3063916,26.6960979 C11.4121725,26.6090225 11.4121725,26.6090225 11.533607,26.6090225 C11.5500434,26.5764222 11.5664797,26.543822 11.5834141,26.5102339 C11.6556652,26.3816046 11.7385142,26.2705129 11.8296037,26.1528712 C12.2839065,25.5256486 12.4135447,24.8030469 12.2811883,24.0630619 C12.1514916,23.5313106 11.8786504,23.0954925 11.4121725,22.7617932 C10.8396884,22.4387102 10.1943557,22.1864945 9.51736686,22.3394555 C9.26864969,22.418141 9.08507096,22.5055814 8.92276458,22.7052163 C8.87496383,22.8261888 8.87496383,22.8261888 8.86204731,22.9315239 C8.903373,22.953695 8.94469869,22.975866 8.98727667,22.998709 C9.04613447,23.032549 9.10499227,23.0663891 9.16563364,23.1012546 C9.20069786,23.119852 9.23576208,23.1384495 9.27188886,23.1576105 C9.59109621,23.3428697 9.73125549,23.5578275 9.83352357,23.8933312 C9.91788896,24.3171901 9.7222856,24.6648117 9.48060446,25.0142611 C9.20912611,25.2672271 8.89499603,25.4145048 8.50912821,25.4259906 C7.86214531,25.3971772 7.34652435,25.1980601 6.85837754,24.7985616 C6.17317981,24.039698 5.99121958,23.2718691 6.06905309,22.309178 C6.22803534,21.5024336 6.79826011,20.8299943 7.48594741,20.3413626 C8.51773466,19.715316 9.88586813,19.614631 11.0744327,19.8233304 C12.3728449,20.136731 13.5521741,20.875095 14.2910247,21.9279469 C15.0643068,23.1720515 15.3072569,24.5259934 14.9337739,25.9300997 C14.4922386,27.4279496 13.4511555,28.6559281 12.0132971,29.4349116 C10.3977044,30.2684647 8.15319049,30.4751881 6.37263942,30.0036365 C6.32425001,29.9911653 6.2758606,29.9786941 6.22600485,29.9658449 C5.11664316,29.6714995 4.10647347,29.2195149 3.2153416,28.5326371 C3.15417488,28.4874563 3.15417488,28.4874563 3.09177247,28.4413627 C1.67681226,27.3663002 0.833513727,25.6109094 0.604499168,23.9499081 C0.443961645,21.5709845 1.17830349,19.5794361 2.82826903,17.7618095 C3.04145151,17.5410925 3.27235635,17.3484182 3.51892793,17.16068 C3.57434192,17.1175776 3.62975591,17.0744753 3.68684911,17.0300669 C4.72255776,16.2529085 5.92205151,15.7162147 7.22268114,15.4633729 C7.31812939,15.4441191 7.31812939,15.4441191 7.41550589,15.4244763 C9.11379198,15.1406944 10.837508,15.4470896 12.4929057,15.7992931 C14.016573,16.1232438 15.3006351,16.1528257 16.6646903,15.3767395 C16.7283225,15.3391071 16.7283225,15.3391071 16.7932402,15.3007143 C17.3235568,14.9895804 17.9130397,15.1731325 18.4098374,15.466909 Z" id="Path"></path>
            <path d="M11.7764761,38.1507103 C12.100015,38.4048119 12.2323266,38.7548028 12.2925728,39.133734 C12.2325917,39.5389437 12.0435275,39.8686635 11.6969625,40.1238298 C11.5261205,40.229774 11.3427847,40.2894268 11.1503293,40.3536734 C10.3859691,40.6232864 9.86750142,40.9905424 9.51096309,41.6903027 C9.21919285,42.2988539 9.07642432,42.961518 9.31742681,43.6103813 C9.49776566,43.9672466 9.84677791,44.2691636 10.2478715,44.405773 C10.6697327,44.485521 11.135444,44.5154473 11.5146329,44.3034483 C11.7653522,44.1242378 11.8738617,43.9962509 11.9662175,43.7093909 C11.9839839,43.5474542 11.9717164,43.4866847 11.871584,43.3509232 C11.7951128,43.2735928 11.7173667,43.1973414 11.6384392,43.1221845 C11.4469361,42.9288026 11.418506,42.7406004 11.3931983,42.4859154 C11.4276283,42.1137627 11.5228133,41.8691549 11.822014,41.6125095 C12.1315361,41.3833502 12.397717,41.243879 12.8010799,41.2624399 C13.2765398,41.3243844 13.687446,41.5720996 14.0230149,41.8847858 C14.5487703,42.5723698 14.8008774,43.3340453 14.6641038,44.1821174 C14.4207515,45.1541637 13.8733569,45.9414947 12.9718472,46.481659 C12.6251541,46.6721289 12.2837238,46.8147198 11.8979106,46.92013 C11.8331044,46.939165 11.8331044,46.939165 11.766989,46.9585846 C10.7367006,47.2200859 9.62562182,46.9930266 8.71096568,46.5274068 C8.46096461,46.3939819 8.23165798,46.2451394 8.01200559,46.0714765 C7.96387056,46.0377823 7.91573552,46.0040881 7.86614185,45.9693729 C7.03899892,45.3180112 6.51201265,44.260276 6.41980796,43.2663064 C6.33403763,41.8670526 6.75022023,40.6002695 7.70841926,39.508556 C7.75475413,39.450211 7.80108899,39.3918661 7.84882794,39.3317531 C8.80377822,38.3798405 10.426968,37.3485223 11.7764761,38.1507103 Z" id="Path"></path>
            <path d="M19.3243912,0.00373466331 C19.3925531,0.00251306617 19.4607151,0.0012914696 19.5309425,0 C20.0895698,-0.0019856218 20.4928208,0.0884887346 20.9447832,0.413917197 C21.2146898,0.672404821 21.2934435,0.932498002 21.3280609,1.28732311 C21.2875222,1.71795072 21.1095166,2.0490078 20.7626314,2.33753184 C20.3420721,2.58573868 19.9238132,2.59646967 19.438236,2.59920001 C19.2912592,2.60242474 19.1442883,2.60588876 18.9973243,2.60958717 C18.9255229,2.61125547 18.8537215,2.61292377 18.7797443,2.61464263 C17.5224734,2.65041343 16.1630618,2.82914739 15.0552084,3.41249296 C15.002299,3.43918577 14.9493896,3.46587857 14.8948769,3.49338025 C14.5126997,3.69547075 14.1763359,3.94124932 13.8408631,4.20456958 C13.7975807,4.23789912 13.7542983,4.27122866 13.7097043,4.30556819 C12.6358233,5.15197723 11.8494181,6.3953006 11.4005508,7.62813512 C11.2181013,8.12020475 11.0137405,8.41043382 10.5052083,8.64232027 C10.0711443,8.71660972 9.68058739,8.7054474 9.28706817,8.50441407 C8.98314594,8.26627072 8.71770299,7.97789919 8.67989552,7.59918365 C8.65450054,7.22998973 8.70702342,6.93877729 8.85066283,6.59494366 C8.86943255,6.54911554 8.88820228,6.50328742 8.90754079,6.45607057 C9.41300689,5.26369677 10.1517515,4.2108237 11.0478689,3.24276226 C11.0906034,3.19601338 11.1333379,3.14926451 11.1773674,3.101099 C12.2576704,1.94833825 13.6090225,1.05393285 15.176643,0.583647901 C15.2180665,0.571121974 15.25949,0.558596047 15.3021688,0.545690546 C16.6093312,0.159348854 17.958603,0.0188205664 19.3243912,0.00373466331 Z" id="Path"></path>
            <path d="M11.5466517,31.6881254 C11.8576455,31.8872349 12.0255499,32.1652527 12.1407797,32.4930202 C12.2187647,33.0289407 11.9562984,33.4921556 11.6201765,33.9144182 C10.2127823,35.599493 8.24001945,36.5982641 6.25665995,37.5959915 C4.03387855,38.6526396 4.03387855,38.6526396 2.63852757,40.4845075 C2.5286843,40.7866038 2.3008083,40.9954638 2.00811159,41.1550322 C1.65508848,41.2975328 1.26579025,41.3280191 0.895752303,41.2253113 C0.49867302,41.0614936 0.231760712,40.7853038 0.0656334348,40.4137864 C-0.138877711,39.8110948 0.173531358,39.2724684 0.467885321,38.7376957 C0.674486677,38.3969426 0.93859967,38.1070009 1.21167183,37.8112489 C1.2636457,37.7500391 1.31553197,37.6887645 1.36725982,37.627374 C1.56177636,37.4228842 1.7758691,37.2503151 2.00099628,37.0757492 C2.04529617,37.0408152 2.08959605,37.0058811 2.13523836,36.9698885 C3.00492463,36.3008526 3.98600094,35.7990393 4.96689241,35.2884385 C7.57863295,33.9670664 7.57863295,33.9670664 9.6551666,32.0262608 C10.1283942,31.4313178 10.8734897,31.3414497 11.5466517,31.6881254 Z" id="Path"></path>
            <path d="M3.94015396,6.19205424 C4.33476576,6.40162299 4.54014199,6.61622801 4.69153012,7.01927042 C4.7814405,7.41497804 4.68483363,7.78739597 4.57768525,8.17202478 C4.38353675,8.92685341 4.43793789,9.64474578 4.83573363,10.3325552 C5.13374033,10.7657172 5.5253333,10.913958 6.05339942,11.0218652 C7.04223107,11.1643842 7.96687239,10.9375907 8.8836304,10.6149977 C9.32056248,10.4692487 9.77877178,10.3903878 10.2130065,10.5800791 C10.5656771,10.765623 10.827626,11.0255809 10.9681775,11.3827639 C11.0397427,11.8362225 10.9396951,12.2017355 10.6873601,12.5885591 C9.9034335,13.3661562 8.10000206,13.6213214 7.02333402,13.6575808 C5.49664809,13.7009788 4.18404588,13.4104029 3.03437568,12.4144084 C1.95109175,11.3600883 1.66740052,9.92029391 1.68389087,8.5185583 C1.69549673,8.14039291 1.76994161,7.79405401 1.87956175,7.42945295 C1.89271083,7.37730717 1.90585992,7.32516139 1.91940746,7.27143543 C2.03183815,6.85923921 2.23879793,6.51939838 2.61955343,6.27316253 C3.01896492,6.0663985 3.51218073,6.0387961 3.94015396,6.19205424 Z" id="Path"></path>
            <path d="M33.6119228,21.746945 C33.659236,21.7744856 33.7065492,21.8020263 33.7552962,21.8304015 C33.8977824,21.913802 34.0395904,21.9981077 34.1811471,22.0828704 C34.2211227,22.1067644 34.2610983,22.1306585 34.3022852,22.1552766 C34.7594205,22.4302526 35.2024062,22.7214494 35.6421563,23.0199253 C36.3998717,23.5331908 37.1859743,23.9798789 38.0015913,24.4084904 C38.215571,24.5216598 38.4289157,24.6357317 38.64102,24.7519299 C38.6896443,24.7784996 38.7382685,24.8050694 38.7883661,24.8324442 C39.0903966,25.0184362 39.266726,25.2585572 39.3421147,25.5906382 C39.4045995,25.994698 39.3247564,26.2590838 39.0816946,26.5977513 C38.8234108,26.9071071 38.5496555,27.0782969 38.1261092,27.1345688 C37.7715168,27.156635 37.5373243,27.061654 37.2329013,26.8972111 C37.0845585,26.8189093 37.0845585,26.8189093 36.8527068,26.8353301 C36.848207,27.1241387 36.8506507,27.4102554 36.8745271,27.6983488 C36.8783622,27.7478326 36.8821974,27.7973164 36.8861488,27.8482997 C36.894236,27.948851 36.9032548,28.0493409 36.9131869,28.1497485 C36.9391514,28.514001 36.8764919,28.7849117 36.670555,29.0984061 C36.3574424,29.4034292 36.0259402,29.5263222 35.5852339,29.5793098 C35.214153,29.5629739 34.8861726,29.3997804 34.6123346,29.1724423 C34.1038819,28.6189276 34.2085749,27.6982846 34.1773523,27.0085968 C34.1726124,26.9088856 34.1678296,26.8091762 34.1630031,26.7094686 C34.1606486,26.6607825 34.1582942,26.6120964 34.1558684,26.5619349 C34.1465808,26.3747443 34.136511,26.1875921 34.126502,26.000434 C34.1208836,25.8830066 34.1174406,25.7654936 34.1141892,25.6479887 C34.1055887,25.2863518 34.1055887,25.2863518 33.9285538,24.9766905 C33.8704004,24.9435797 33.8122471,24.910469 33.7523314,24.8763549 C33.6861164,24.8363886 33.6199014,24.7964223 33.5516799,24.7552449 C33.5158525,24.7349336 33.4800252,24.7146223 33.4431122,24.6936955 C33.3267501,24.6263087 33.2149034,24.5547612 33.1029413,24.4812006 C32.7671928,24.2607507 32.4302625,24.0447797 32.0788118,23.8464785 C31.2070322,23.3520903 31.2070322,23.3520903 31.0563425,23.0135162 C30.9658966,22.6278044 30.9334836,22.2359655 31.1528735,21.8848512 C31.8383787,21.0343674 32.7657522,21.2456537 33.6119228,21.746945 Z" id="Path"></path>
            <path d="M23.6770602,33.4548275 C24.2416899,33.8452772 24.6421024,34.2723687 24.7699709,34.925827 C24.8299326,35.5945543 24.7198596,36.1372855 24.2842328,36.6797109 C23.8968417,37.0705181 23.4324992,37.3319986 22.8592745,37.374104 C22.1655709,37.3972614 21.6282465,37.2884331 21.0738074,36.8706579 C20.5912407,36.4373195 20.3792035,35.9101686 20.3186364,35.3006489 C20.3762522,34.6778807 20.6210803,34.1195884 21.1155505,33.6882072 C21.8273317,33.1484461 22.8673175,33.0311149 23.6770602,33.4548275 Z" id="Path"></path>
        </g>
    </g>
</svg>