<?xml version="1.0" encoding="UTF-8"?>
<svg width="64px" height="64px" viewBox="0 0 64 64" version="1.1" xmlns="http://www.w3.org/2000/svg" xmlns:xlink="http://www.w3.org/1999/xlink">
    <title>Ai2</title>
    <g id="Ai2" stroke="none" fill="none" fill-rule="evenodd" stroke-width="1">
        <g transform="translate(5, 5.1305)" fill="#2B2F38" id="Shape">
            <path d="M21.49425,20.970001 L10.74825,20.970001 L10.74825,10.74825 L19.395,10.74825 C20.54925,10.74825 21.492,9.80325 21.492,8.65125 L21.492,0 L31.7160002,0 L31.7160002,10.74825 C31.7165973,13.4597996 30.6395489,16.0604298 28.7219827,17.9775739 C26.8044166,19.8947181 24.2035494,20.9711941 21.492,20.970001 L21.49425,20.970001 Z M10.74825,22.0207498 L0,22.0207498 L0,32.2425 L8.65125,32.2425 C9.80325,32.2425 10.74825,33.1875 10.74825,34.3395 L10.74825,42.99075 L20.9700002,42.99075 L20.9700002,32.2425 C20.970597,29.5313404 19.8938574,26.9310514 17.976778,25.013972 C16.0596986,23.0968926 13.4594096,22.020153 10.74825,22.0207498 L10.74825,22.0207498 Z M45.1125,21.492 C43.9558971,21.4882949 43.0192051,20.5516029 43.0155,19.395 L43.0155,10.74825 L32.793749,10.74825 L32.793749,21.492 C32.7925559,24.2035494 33.8690319,26.8044166 35.7861761,28.7219827 C37.7033202,30.6395489 40.3039504,31.7165973 43.0155,31.7160002 L53.76375,31.7160002 L53.76375,21.4965 L45.1125,21.4965 L45.1125,21.492 Z M22.02075,42.993 L22.02075,53.74125 L32.24475,53.74125 L32.24475,45.09 C32.24475,43.93575 33.18975,42.993 34.34175,42.993 L42.993,42.993 L42.993,32.764499 L32.2425,32.764499 C29.5305606,32.7633056 26.9293522,33.8400903 25.0117213,35.7577213 C23.0940903,37.6753522 22.0173056,40.2765606 22.018499,42.9885 L22.02075,42.993 Z" fill-rule="nonzero"></path>
        </g>
    </g>
</svg>