<?xml version="1.0" encoding="UTF-8"?>
<svg width="64px" height="64px" viewBox="0 0 64 64" version="1.1" xmlns="http://www.w3.org/2000/svg" xmlns:xlink="http://www.w3.org/1999/xlink">
    <title>Amazon</title>
    <g id="Amazon" stroke="none" fill="none" fill-rule="evenodd" stroke-width="1">
        <g id="amazon" transform="translate(6, 6.3619)">
            <path d="M26.890236,0 C30.3402852,0 34.8471023,0.906067758 37.5693098,3.48623322 C40.9352114,6.58933746 40.7040297,10.7048083 40.6907502,15.1925077 L40.6902224,26.4409876 C40.6902224,29.7202679 42.0662487,31.157937 43.3624079,32.9306331 C43.8210133,33.5608328 43.9208472,34.3193143 43.3424411,34.7917565 C41.8966362,35.9832408 39.3240744,38.1991109 37.9083247,39.4399982 L37.8883579,39.4202786 C37.4198743,39.8337693 36.7418445,39.8634526 36.2134605,39.5875845 C33.8603231,37.657546 33.4414411,36.7614419 32.1452819,34.9198307 C28.2565942,38.8392743 25.5045416,40.0110389 20.4592519,40.0110389 C14.4965414,40.0110389 9.84995674,36.3772194 9.84995674,29.0998243 C9.84995674,23.4178557 12.9710795,19.5476075 17.4079078,17.6570084 C21.2568722,15.9827031 26.6312984,15.687323 30.7394106,15.2246368 L30.7394106,14.3185691 C30.7394106,12.6542274 30.8688793,10.6847496 29.88189,9.24708053 C29.0142809,7.9569978 27.35914,7.42518895 25.9032466,7.42518895 C23.2012161,7.42518895 20.7881783,8.79394286 20.199894,11.6300491 C20.0800933,12.2604564 19.6116096,12.8809 18.9735134,12.9103758 L12.0933819,12.1817852 C11.5151861,12.0535035 10.8770899,11.5908173 11.0366139,10.7142253 C12.6219761,2.4817746 20.149872,0 26.890236,0 Z M30.7394106,20.8376903 C25.6140436,20.8376903 20.199894,21.9208201 20.199894,27.8886203 C20.199894,30.9117522 21.7852562,32.9601088 24.5074637,32.9601088 C26.5016195,32.9601088 28.2864393,31.7489049 29.4131961,29.7792194 C30.8091892,27.3568115 30.7394106,25.0819898 30.7394106,22.354238 Z" id="Combined-Shape" fill="#2B2F38"></path>
            <path d="M45.6112977,41.6426968 C23.4933616,52.0387086 9.7667268,43.3406657 0.979873038,38.0576576 C0.436146133,37.7247062 -0.488000445,38.1354984 0.313823343,39.045095 C3.24116324,42.5506327 12.8346749,51 25.3569976,51 C37.8879376,51 45.342692,44.2471486 46.2752456,43.0691567 C47.201494,41.9011285 46.5472142,41.2568136 45.6110875,41.6426968 L45.6112977,41.6426968 Z M51.8230676,38.2546469 C51.2291084,37.4907684 48.2113926,37.3483715 46.3122367,37.5787805 C44.4101383,37.8025471 41.5550992,38.9506481 41.8033178,39.6400068 C41.9306848,39.8982309 42.1906733,39.7824037 43.4973413,39.6663689 C44.8075823,39.5372569 48.4781067,39.0797601 49.2429394,40.0671975 C50.0113451,41.0614849 48.0722557,45.7979464 47.7181081,46.5618248 C47.3759405,47.3257032 47.8488379,47.5226925 48.491558,47.0139246 C49.1254507,46.5053642 50.273015,45.1882967 51.0431021,43.3244748 C51.8079348,41.4504817 52.2743167,38.8362739 51.8228574,38.2546469 L51.8230676,38.2546469 Z" id="Shape" fill="#000000" fill-opacity="0.45" fill-rule="nonzero"></path>
        </g>
    </g>
</svg>
