<?xml version="1.0" encoding="UTF-8"?>
<svg width="221px" height="65px" viewBox="0 0 221 65" version="1.1" xmlns="http://www.w3.org/2000/svg" xmlns:xlink="http://www.w3.org/1999/xlink">
    <title>Amazon</title>
    <g id="Amazon" stroke="none" fill="none" fill-rule="evenodd">
        <path d="M37.5051767,41.6777945 C53.1258144,50.7687995 72.4401032,56.2379624 92.3912201,56.2379624 C105.846616,56.2379624 120.648472,53.4533261 134.258537,47.6747642 C136.314604,46.8011501 138.034056,49.0215781 136.023479,50.5139938 C123.878137,59.4684982 106.274205,64.24605 91.1175469,64.24605 C69.8654676,64.24605 50.7331429,56.3835641 36.2587997,43.3067177 C35.121597,42.2784006 36.1405266,40.8769899 37.5051767,41.6777945 Z M146.258324,40.7859849 C147.586572,42.433107 145.912613,53.8537371 139.389604,59.3046906 C138.388865,60.1419 137.433612,59.6960004 137.879402,58.5857829 C139.344117,54.9275428 142.628367,46.7283544 141.072671,44.7354319 C139.526067,42.7516107 130.810534,43.7981233 126.898551,44.2622287 C125.706756,44.4078305 125.524809,43.3704191 126.598324,42.6242044 C133.539824,37.7374521 144.930068,39.1479674 146.258324,40.7859849 Z" id="smile" fill="#88929F"></path>
        <path d="M127.171482,8.12572469 L127.171482,3.37547304 C127.171482,2.65656532 127.71734,2.17426093 128.372369,2.17426093 L149.63354,2.17426093 C150.315868,2.17426093 150.861726,2.66566651 150.861726,3.37547304 L150.861726,7.44321829 C150.852635,8.12572469 150.279477,9.01753431 149.260537,10.4280496 L138.243302,26.162126 C142.337242,26.0620302 146.658619,26.6717305 150.370454,28.7647557 C151.207437,29.2379589 151.434877,29.9295665 151.498561,30.6120798 L151.498561,35.6808352 C151.498561,36.3724428 150.734358,37.1823451 149.933767,36.7637456 C143.392563,33.3330043 134.704323,32.9599003 127.471702,36.8001469 C126.734795,37.200551 125.961497,36.3997429 125.961497,35.7081353 L125.961497,30.8941822 C125.961497,30.1206743 125.970588,28.8011535 126.743887,27.6272416 L139.507873,9.31783907 L128.399662,9.31783907 C127.71734,9.31783907 127.171482,8.83553815 127.171482,8.12572469 M49.6141274,37.7647522 L43.14571,37.7647522 C42.5270761,37.7192567 42.0358001,37.2551512 41.99031,36.6636394 L41.99031,3.45738033 C41.99031,2.79307285 42.5452666,2.26526248 43.2366869,2.26526248 L49.2684172,2.26526248 C49.8961603,2.29254524 50.3965246,2.77486698 50.4420182,3.37547304 L50.4420182,7.7162264 L50.5602879,7.7162264 C52.1341775,3.52107482 55.0909044,1.56455368 59.0756734,1.56455368 C63.1241196,1.56455368 65.6532616,3.52107482 67.4727892,7.7162264 C69.0375837,3.52107482 72.5947574,1.56455368 76.4066713,1.56455368 C79.1177671,1.56455368 82.0835961,2.68386544 83.8940251,5.19549358 C85.9409933,7.9892241 85.5225002,12.0478682 85.5225002,15.6060124 L85.5134084,36.5635436 C85.5134084,37.2278511 84.9584517,37.7647522 84.2670314,37.7647522 L77.8077059,37.7647522 C77.1617793,37.7192567 76.643214,37.200551 76.643214,36.5635436 L76.643214,18.9639476 C76.643214,17.5625335 76.7705754,14.0680942 76.4612602,12.7394758 C75.9790864,10.5099569 74.5325616,9.88204381 72.658445,9.88204381 C71.0936506,9.88204381 69.4560767,10.9285564 68.7919492,12.6029786 C68.1278216,14.2773974 68.1915058,17.0802222 68.1915058,18.9639476 L68.1915058,36.5635436 C68.1915058,37.2278511 67.6365491,37.7647522 66.9451288,37.7647522 L60.4858102,37.7647522 C59.8307813,37.7192567 59.3213114,37.200551 59.3213114,36.5635436 L59.3122126,18.9639476 C59.3122126,15.2602086 59.9217478,9.80924465 55.3274471,9.80924465 C50.6785505,9.80924465 50.8605044,15.123701 50.8605044,18.9639476 L50.8605044,36.5635436 C50.8605044,37.2278511 50.3055477,37.7647522 49.6141274,37.7647522 M169.166171,1.56455368 C178.764177,1.56455368 183.958924,9.80924465 183.958924,20.2925626 C183.958924,30.4209721 178.218312,38.4563598 169.166171,38.4563598 C159.741016,38.4563598 154.609946,30.2116689 154.609946,19.9376576 C154.609946,9.59994144 159.8047,1.56455368 169.166171,1.56455368 M169.220753,8.34413257 C164.453597,8.34413257 164.153332,14.8415987 164.153332,18.8911485 C164.153332,22.9497925 164.089686,31.6130865 169.166171,31.6130865 C174.178968,31.6130865 174.415507,24.6242148 174.415507,20.3653583 C174.415507,17.5625335 174.297238,14.213696 173.451153,11.5564626 C172.723341,9.24504338 171.276823,8.34413257 169.220753,8.34413257 M196.404493,37.7647522 L189.963369,37.7647522 C189.317432,37.7192567 188.798867,37.200551 188.798867,36.5635436 L188.789775,3.34817292 C188.84436,2.73846567 189.381123,2.26526248 190.036152,2.26526248 L196.031498,2.26526248 C196.595546,2.29254524 197.059526,2.67476771 197.186898,3.19347341 L197.186898,8.27132647 L197.30516,8.27132647 C199.115596,3.73037803 201.65383,1.56455368 206.120769,1.56455368 C209.022914,1.56455368 211.852283,2.61106628 213.671811,5.47759595 C215.36397,8.13482589 215.36397,12.6029786 215.36397,15.8153086 L215.36397,36.7182466 C215.291191,37.3006468 214.754428,37.7647522 214.1176,37.7647522 L207.630982,37.7647522 C207.03963,37.7192567 206.548358,37.2824513 206.48468,36.7182466 L206.48468,18.6818453 C206.48468,15.0509054 206.90317,9.73644202 202.436227,9.73644202 C200.862341,9.73644202 199.415813,10.7920593 198.6971,12.393672 C197.787341,14.4229992 197.669071,16.4432218 197.669071,18.6818453 L197.669071,36.5635436 C197.65998,37.2278511 197.095921,37.7647522 196.4045,37.7647522 M110.222583,21.9032799 L110.222583,20.5018658 C105.546393,20.5018658 100.606379,21.5028759 100.606379,27.0175343 C100.606379,29.8112648 102.0529,31.7040915 104.536555,31.7040915 C106.356083,31.7040915 107.984558,30.5847797 109.012597,28.7647557 C110.28626,26.5261287 110.222583,24.4240058 110.222583,21.9032799 M116.745585,37.6737507 C116.317997,38.0559558 115.699353,38.0832559 115.217179,37.8284571 C113.070142,36.0448379 112.688037,35.2167297 111.505344,33.5150108 C107.957265,37.1368495 105.446324,38.2197565 100.842914,38.2197565 C95.4025254,38.2197565 91.1630336,34.8618212 91.1630336,28.136853 C91.1630336,22.8860911 94.010593,19.3097514 98.0590392,17.5625335 C101.570726,16.0155107 106.474353,15.742513 110.222583,15.3148088 L110.222583,14.4775994 C110.222583,12.9396778 110.340852,11.1196572 109.440185,9.7910492 C108.648686,8.59893135 107.138484,8.10752577 105.810225,8.10752577 C103.344771,8.10752577 101.143138,9.3724393 100.606379,11.9932679 C100.497204,12.5756785 100.069616,13.1489845 99.48737,13.1762846 L93.2100018,12.5028724 C92.6823378,12.3845777 92.1000884,11.9568666 92.2456508,11.1469643 C93.6921756,3.53928068 100.560888,1.24605 106.710895,1.24605 C109.858672,1.24605 113.970802,2.08325938 116.454457,4.46748467 C119.602244,7.40681697 119.302017,11.3289604 119.302017,15.5969112 L119.302017,25.6798216 C119.302017,28.7101589 120.557496,30.038767 121.740189,31.6767914 C122.158678,32.2591915 122.249655,32.9599003 121.721991,33.3967057 C120.402835,34.497822 118.055647,36.5453447 116.763776,37.6919565 L116.745585,37.6737333 M25.4235191,21.9032799 L25.4235191,20.5018658 C20.7473294,20.5018658 15.8073151,21.5028759 15.8073151,27.0175343 C15.8073151,29.8112648 17.2538364,31.7040915 19.7374917,31.7040915 C21.5570194,31.7040915 23.1854945,30.5847797 24.2135332,28.7647557 C25.4871963,26.5261287 25.4235191,24.4240058 25.4235191,21.9032799 M31.9465218,37.6737507 C31.5189335,38.0559558 30.9002891,38.0832559 30.4181154,37.8284571 C28.2710785,36.0448379 27.8889734,35.2167297 26.7062806,33.5150108 C23.1582018,37.1368495 20.6472607,38.2197565 16.0438509,38.2197565 C10.6034618,38.2197565 6.36397,34.8618212 6.36397,28.136853 C6.36397,22.8860911 9.21152941,19.3097514 13.2599756,17.5625335 C16.7716626,16.0155107 21.675289,15.742513 25.4235191,15.3148088 L25.4235191,14.4775994 C25.4235191,12.9396778 25.5417887,11.1196572 24.6411218,9.7910492 C23.8496221,8.59893135 22.33942,8.10752577 21.0111614,8.10752577 C18.5457071,8.10752577 16.3440743,9.3724393 15.8073151,11.9932679 C15.6981407,12.5756785 15.2705524,13.1489845 14.6883064,13.1762846 L8.41093821,12.5028724 C7.88327424,12.3845777 7.30102483,11.9568666 7.44658718,11.1469643 C8.89311198,3.53928068 15.7618249,1.24605 21.9118317,1.24605 C25.059608,1.24605 29.1717384,2.08325938 31.6553936,4.46748467 C34.80318,7.40681697 34.502953,11.3289604 34.502953,15.5969112 L34.502953,25.6798216 C34.502953,28.7101589 35.7584322,30.038767 36.9411251,31.6767914 C37.3596147,32.2591915 37.4505916,32.9599003 36.9229276,33.3967057 C35.6037712,34.497822 33.256583,36.5453447 31.9647123,37.6919565 L31.9465218,37.6737333" id="amazon" fill="#2B2F38"></path>
    </g>
</svg>