<?xml version="1.0" encoding="UTF-8"?>
<svg width="210px" height="65px" viewBox="0 0 210 65" version="1.1" xmlns="http://www.w3.org/2000/svg" xmlns:xlink="http://www.w3.org/1999/xlink">
    <title>Amazon</title>
    <g id="Amazon" stroke="none" fill="none" fill-rule="evenodd">
        <path d="M31.5051767,41.6777945 C47.1258144,50.7687995 66.4401032,56.2379624 86.3912201,56.2379624 C99.8466161,56.2379624 114.648472,53.4533261 128.258537,47.6747642 C130.314604,46.8011501 132.034056,49.0215781 130.023479,50.5139938 C117.878137,59.4684982 100.274205,64.24605 85.1175469,64.24605 C63.8654676,64.24605 44.7331429,56.3835641 30.2587997,43.3067177 C29.121597,42.2784006 30.1405266,40.8769899 31.5051767,41.6777945 Z M140.258324,40.7859849 C141.586572,42.433107 139.912613,53.8537371 133.389604,59.3046906 C132.388865,60.1419 131.433612,59.6960004 131.879402,58.5857829 C133.344117,54.9275428 136.628367,46.7283544 135.072671,44.7354319 C133.526067,42.7516107 124.810534,43.7981233 120.898551,44.2622287 C119.706756,44.4078305 119.524809,43.3704191 120.598324,42.6242044 C127.539824,37.7374521 138.930068,39.1479674 140.258324,40.7859849 Z" id="smile" fill="#88929F"></path>
        <path d="M121.171482,8.12572469 L121.171482,3.37547304 C121.171482,2.65656532 121.71734,2.17426093 122.372369,2.17426093 L143.63354,2.17426093 C144.315868,2.17426093 144.861726,2.66566651 144.861726,3.37547304 L144.861726,7.44321829 C144.852635,8.12572469 144.279477,9.01753431 143.260537,10.4280496 L132.243302,26.162126 C136.337242,26.0620302 140.658619,26.6717305 144.370454,28.7647557 C145.207437,29.2379589 145.434877,29.9295665 145.498561,30.6120798 L145.498561,35.6808352 C145.498561,36.3724428 144.734358,37.1823451 143.933767,36.7637456 C137.392563,33.3330043 128.704323,32.9599003 121.471702,36.8001469 C120.734795,37.200551 119.961497,36.3997429 119.961497,35.7081353 L119.961497,30.8941822 C119.961497,30.1206743 119.970588,28.8011535 120.743887,27.6272416 L133.507873,9.31783907 L122.399662,9.31783907 C121.71734,9.31783907 121.171482,8.83553815 121.171482,8.12572469 M43.6141274,37.7647522 L37.14571,37.7647522 C36.5270761,37.7192567 36.0358001,37.2551512 35.99031,36.6636394 L35.99031,3.45738033 C35.99031,2.79307285 36.5452666,2.26526248 37.2366869,2.26526248 L43.2684172,2.26526248 C43.8961603,2.29254524 44.3965246,2.77486698 44.4420182,3.37547304 L44.4420182,7.7162264 L44.5602879,7.7162264 C46.1341775,3.52107482 49.0909044,1.56455368 53.0756734,1.56455368 C57.1241196,1.56455368 59.6532616,3.52107482 61.4727892,7.7162264 C63.0375837,3.52107482 66.5947574,1.56455368 70.4066713,1.56455368 C73.1177671,1.56455368 76.0835961,2.68386544 77.8940251,5.19549358 C79.9409933,7.9892241 79.5225002,12.0478682 79.5225002,15.6060124 L79.5134084,36.5635436 C79.5134084,37.2278511 78.9584517,37.7647522 78.2670314,37.7647522 L71.8077059,37.7647522 C71.1617793,37.7192567 70.643214,37.200551 70.643214,36.5635436 L70.643214,18.9639476 C70.643214,17.5625335 70.7705754,14.0680942 70.4612602,12.7394758 C69.9790864,10.5099569 68.5325616,9.88204381 66.658445,9.88204381 C65.0936506,9.88204381 63.4560767,10.9285564 62.7919492,12.6029786 C62.1278216,14.2773974 62.1915058,17.0802222 62.1915058,18.9639476 L62.1915058,36.5635436 C62.1915058,37.2278511 61.6365491,37.7647522 60.9451288,37.7647522 L54.4858102,37.7647522 C53.8307813,37.7192567 53.3213114,37.200551 53.3213114,36.5635436 L53.3122126,18.9639476 C53.3122126,15.2602086 53.9217478,9.80924465 49.3274471,9.80924465 C44.6785505,9.80924465 44.8605044,15.123701 44.8605044,18.9639476 L44.8605044,36.5635436 C44.8605044,37.2278511 44.3055477,37.7647522 43.6141274,37.7647522 M163.166171,1.56455368 C172.764177,1.56455368 177.958924,9.80924465 177.958924,20.2925626 C177.958924,30.4209721 172.218312,38.4563598 163.166171,38.4563598 C153.741016,38.4563598 148.609946,30.2116689 148.609946,19.9376576 C148.609946,9.59994144 153.8047,1.56455368 163.166171,1.56455368 M163.220753,8.34413257 C158.453597,8.34413257 158.153332,14.8415987 158.153332,18.8911485 C158.153332,22.9497925 158.089686,31.6130865 163.166171,31.6130865 C168.178968,31.6130865 168.415507,24.6242148 168.415507,20.3653583 C168.415507,17.5625335 168.297238,14.213696 167.451153,11.5564626 C166.723341,9.24504338 165.276823,8.34413257 163.220753,8.34413257 M190.404493,37.7647522 L183.963369,37.7647522 C183.317432,37.7192567 182.798867,37.200551 182.798867,36.5635436 L182.789775,3.34817292 C182.84436,2.73846567 183.381123,2.26526248 184.036152,2.26526248 L190.031498,2.26526248 C190.595546,2.29254524 191.059526,2.67476771 191.186898,3.19347341 L191.186898,8.27132647 L191.30516,8.27132647 C193.115596,3.73037803 195.65383,1.56455368 200.120769,1.56455368 C203.022914,1.56455368 205.852283,2.61106628 207.671811,5.47759595 C209.36397,8.13482589 209.36397,12.6029786 209.36397,15.8153086 L209.36397,36.7182466 C209.291191,37.3006468 208.754428,37.7647522 208.1176,37.7647522 L201.630982,37.7647522 C201.03963,37.7192567 200.548358,37.2824513 200.48468,36.7182466 L200.48468,18.6818453 C200.48468,15.0509054 200.90317,9.73644202 196.436227,9.73644202 C194.862341,9.73644202 193.415813,10.7920593 192.6971,12.393672 C191.787341,14.4229992 191.669071,16.4432218 191.669071,18.6818453 L191.669071,36.5635436 C191.65998,37.2278511 191.095921,37.7647522 190.4045,37.7647522 M104.222583,21.9032799 L104.222583,20.5018658 C99.546393,20.5018658 94.6063787,21.5028759 94.6063787,27.0175343 C94.6063787,29.8112648 96.0529,31.7040915 98.5365553,31.7040915 C100.356083,31.7040915 101.984558,30.5847797 103.012597,28.7647557 C104.28626,26.5261287 104.222583,24.4240058 104.222583,21.9032799 M110.745585,37.6737507 C110.317997,38.0559558 109.699353,38.0832559 109.217179,37.8284571 C107.070142,36.0448379 106.688037,35.2167297 105.505344,33.5150108 C101.957265,37.1368495 99.4463243,38.2197565 94.8429145,38.2197565 C89.4025254,38.2197565 85.1630336,34.8618212 85.1630336,28.136853 C85.1630336,22.8860911 88.010593,19.3097514 92.0590392,17.5625335 C95.5707262,16.0155107 100.474353,15.742513 104.222583,15.3148088 L104.222583,14.4775994 C104.222583,12.9396778 104.340852,11.1196572 103.440185,9.7910492 C102.648686,8.59893135 101.138484,8.10752577 99.810225,8.10752577 C97.3447707,8.10752577 95.1431379,9.3724393 94.6063787,11.9932679 C94.4972043,12.5756785 94.069616,13.1489845 93.48737,13.1762846 L87.2100018,12.5028724 C86.6823378,12.3845777 86.1000884,11.9568666 86.2456508,11.1469643 C87.6921756,3.53928068 94.5608885,1.24605 100.710895,1.24605 C103.858672,1.24605 107.970802,2.08325938 110.454457,4.46748467 C113.602244,7.40681697 113.302017,11.3289604 113.302017,15.5969112 L113.302017,25.6798216 C113.302017,28.7101589 114.557496,30.038767 115.740189,31.6767914 C116.158678,32.2591915 116.249655,32.9599003 115.721991,33.3967057 C114.402835,34.497822 112.055647,36.5453447 110.763776,37.6919565 L110.745585,37.6737333 M19.4235191,21.9032799 L19.4235191,20.5018658 C14.7473294,20.5018658 9.80731508,21.5028759 9.80731508,27.0175343 C9.80731508,29.8112648 11.2538364,31.7040915 13.7374917,31.7040915 C15.5570194,31.7040915 17.1854945,30.5847797 18.2135332,28.7647557 C19.4871963,26.5261287 19.4235191,24.4240058 19.4235191,21.9032799 M25.9465218,37.6737507 C25.5189335,38.0559558 24.9002891,38.0832559 24.4181154,37.8284571 C22.2710785,36.0448379 21.8889734,35.2167297 20.7062806,33.5150108 C17.1582018,37.1368495 14.6472607,38.2197565 10.0438509,38.2197565 C4.60346182,38.2197565 0.36397,34.8618212 0.36397,28.136853 C0.36397,22.8860911 3.21152941,19.3097514 7.25997564,17.5625335 C10.7716626,16.0155107 15.675289,15.742513 19.4235191,15.3148088 L19.4235191,14.4775994 C19.4235191,12.9396778 19.5417887,11.1196572 18.6411218,9.7910492 C17.8496221,8.59893135 16.33942,8.10752577 15.0111614,8.10752577 C12.5457071,8.10752577 10.3440743,9.3724393 9.80731508,11.9932679 C9.69814071,12.5756785 9.27055239,13.1489845 8.68830644,13.1762846 L2.41093821,12.5028724 C1.88327424,12.3845777 1.30102483,11.9568666 1.44658718,11.1469643 C2.89311198,3.53928068 9.76182489,1.24605 15.9118317,1.24605 C19.059608,1.24605 23.1717384,2.08325938 25.6553936,4.46748467 C28.80318,7.40681697 28.502953,11.3289604 28.502953,15.5969112 L28.502953,25.6798216 C28.502953,28.7101589 29.7584322,30.038767 30.9411251,31.6767914 C31.3596147,32.2591915 31.4505916,32.9599003 30.9229276,33.3967057 C29.6037712,34.497822 27.256583,36.5453447 25.9647123,37.6919565 L25.9465218,37.6737333" id="amazon" fill="#2B2F38"></path>
    </g>
</svg>