<?xml version="1.0" encoding="UTF-8"?>
<svg width="68px" height="68px" viewBox="0 0 68 68" version="1.1" xmlns="http://www.w3.org/2000/svg" xmlns:xlink="http://www.w3.org/1999/xlink">
    <title>by</title>
    <g id="by" stroke="none" stroke-width="1" fill="none" fill-rule="evenodd">
        <path d="M33.943,2 C42.931,2 50.513,5.085 56.685,11.257 C62.893,17.467 66,25.048 66,34 C66,42.991 62.951,50.476 56.855,56.456 C50.379,62.819 42.742,66 33.943,66 C25.294,66 17.79,62.856 11.429,56.57 C5.144,50.284 2,42.762 2,34 C2,25.239 5.144,17.658 11.429,11.258 C17.601,5.085 25.104,2 33.943,2 Z M34.057,7.772 C26.781,7.772 20.629,10.325 15.6,15.429 C10.38,20.763 7.771,26.954 7.771,34.001 C7.771,41.087 10.361,47.221 15.541,52.399 C20.722,57.581 26.893,60.17 34.055,60.17 C41.178,60.17 47.389,57.563 52.684,52.342 C57.713,47.504 60.227,41.39 60.227,33.999 C60.227,26.723 57.674,20.534 52.571,15.428 C47.467,10.324 41.295,7.772 34.057,7.772 Z M42.629,26.057 L42.629,39.142 L38.973,39.142 L38.973,54.684 L29.029,54.684 L29.029,39.143 L25.373,39.143 L25.373,26.057 C25.373,25.485 25.573,25 25.972,24.6 C26.373,24.201 26.859,24 27.429,24 L40.573,24 C41.106,24 41.583,24.2 42.001,24.6 C42.418,25 42.629,25.486 42.629,26.057 Z M29.542,17.829 C29.542,14.821 31.027,13.315 34,13.315 C36.973,13.315 38.457,14.819 38.457,17.829 C38.457,20.8 36.971,22.286 34,22.286 C31.029,22.286 29.542,20.8 29.542,17.829 Z" id="Shape" fill="#000000" fill-rule="nonzero"></path>
    </g>
</svg>