<?xml version="1.0" encoding="UTF-8"?>
<svg width="68px" height="68px" viewBox="0 0 68 68" version="1.1" xmlns="http://www.w3.org/2000/svg" xmlns:xlink="http://www.w3.org/1999/xlink">
    <title>cc</title>
    <g id="cc" stroke="none" stroke-width="1" fill="none" fill-rule="evenodd">
        <path d="M34.441,2.5 C43.392,2.5 51.013,5.625 57.298,11.872 C60.306,14.881 62.593,18.32 64.155,22.186 C65.716,26.053 66.499,30.157 66.499,34.5 C66.499,38.881 65.726,42.986 64.185,46.813 C62.642,50.641 60.365,54.023 57.357,56.956 C54.234,60.041 50.691,62.404 46.728,64.042 C42.767,65.68 38.671,66.499 34.443,66.499 C30.215,66.499 26.167,65.691 22.3,64.07 C18.434,62.452 14.967,60.109 11.9,57.043 C8.833,53.977 6.5,50.519 4.9,46.671 C3.3,42.823 2.5,38.767 2.5,34.5 C2.5,30.271 3.309,26.205 4.928,22.3 C6.547,18.395 8.9,14.9 11.985,11.814 C18.08,5.606 25.565,2.5 34.441,2.5 Z M34.557,8.272 C27.243,8.272 21.09,10.825 16.099,15.929 C13.584,18.482 11.651,21.348 10.299,24.529 C8.945,27.71 8.27,31.034 8.27,34.501 C8.27,37.93 8.945,41.235 10.299,44.414 C11.652,47.597 13.584,50.435 16.099,52.93 C18.613,55.426 21.45,57.329 24.614,58.645 C27.775,59.959 31.09,60.616 34.557,60.616 C37.985,60.616 41.307,59.951 44.53,58.617 C47.749,57.282 50.651,55.36 53.243,52.846 C58.233,47.97 60.727,41.856 60.727,34.502 C60.727,30.959 60.079,27.607 58.784,24.445 C57.491,21.283 55.604,18.465 53.13,15.987 C47.984,10.844 41.795,8.272 34.557,8.272 Z M34.156,29.187 L29.869,31.416 C29.411,30.465 28.85,29.797 28.184,29.416 C27.517,29.036 26.898,28.845 26.326,28.845 C23.47,28.845 22.04,30.73 22.04,34.502 C22.04,36.216 22.402,37.586 23.125,38.615 C23.849,39.644 24.916,40.159 26.326,40.159 C28.193,40.159 29.507,39.244 30.27,37.416 L34.212,39.416 C33.374,40.979 32.212,42.207 30.726,43.102 C29.242,43.998 27.603,44.445 25.812,44.445 C22.955,44.445 20.649,43.57 18.897,41.816 C17.145,40.064 16.269,37.626 16.269,34.503 C16.269,31.455 17.155,29.037 18.926,27.246 C20.697,25.456 22.935,24.5599981 25.641,24.5599981 C29.604,24.558 32.441,26.101 34.156,29.187 Z M52.613,29.187 L48.384,31.416 C47.927,30.465 47.364,29.797 46.698,29.416 C46.03,29.036 45.391,28.845 44.784,28.845 C41.927,28.845 40.497,30.73 40.497,34.502 C40.497,36.216 40.86,37.586 41.583,38.615 C42.306,39.644 43.372,40.159 44.784,40.159 C46.649,40.159 47.964,39.244 48.725,37.416 L52.725,39.416 C51.85,40.979 50.668,42.207 49.184,43.102 C47.698,43.998 46.079,44.445 44.327,44.445 C41.431,44.445 39.118,43.57 37.386,41.816 C35.65,40.064 34.784,37.626 34.784,34.503 C34.784,31.455 35.669,29.037 37.442,27.246 C39.212,25.456 41.45,24.5599981 44.155,24.5599981 C48.117,24.558 50.938,26.101 52.613,29.187 Z" id="Shape" fill="#000000" fill-rule="nonzero"></path>
    </g>
</svg>