<?xml version="1.0" encoding="UTF-8"?>
<svg width="64px" height="64px" viewBox="0 0 64 64" version="1.1" xmlns="http://www.w3.org/2000/svg" xmlns:xlink="http://www.w3.org/1999/xlink">
    <title>Georgetown</title>
    <g id="Georgetown" stroke="none" fill="none" fill-rule="evenodd" stroke-width="1">
        <g id="Group" transform="translate(7.4399, 9.9996)">
            <path d="M26.5825044,-0.43809529 C32.1691378,-0.158075922 36.8416153,1.72027611 40.6260964,4.57002894 C42.0928843,5.67776065 43.3352639,6.86806021 44.3603795,8.06511254 C44.9927699,8.80357016 45.4259664,9.40336964 45.6536219,9.77085454 L46.2240356,10.6892038 L46.419296,11.0035673 L46.1756935,11.2821511 L41.6843602,16.4184394 L50.0005336,16.4273147 L51.1958801,16.4285904 L50.3556259,17.2787831 C50.2781985,17.3571263 50.2781985,17.3571263 49.9684852,17.6704851 C49.5813307,18.0621836 49.5813307,18.0621836 49.1166947,18.5322269 C49.116485,18.532439 49.116485,18.532439 49.1162753,18.5326512 C48.3207251,19.3374295 47.8897941,19.7731677 47.888207,19.7739288 C47.79197,19.8776112 47.6575694,20.0622803 47.5147741,20.3466506 C47.2641497,20.8457578 47.1131187,21.4341754 47.1131187,22.1109012 L47.1131187,44.3645737 L46.4117987,44.056083 C45.9855814,43.8682473 45.7508595,43.7649265 45.5194433,43.6638968 C45.1583445,43.5062516 44.8398981,43.3694518 44.5293893,43.2392107 C44.0568029,43.040987 43.6191709,42.8650708 43.2028307,42.7073327 C41.7145188,42.1434584 40.5563705,41.8362923 39.7893549,41.8362923 C39.2994628,41.8362923 38.6090574,42.0235937 36.8179296,42.6029354 C35.900689,42.8982839 35.4800012,43.0311531 34.9132391,43.2003918 C31.5813383,44.1953178 28.5687299,44.7179237 25.0134003,44.7179237 C18.1073781,44.7179237 11.7388739,42.5588597 7.08657827,38.6326811 C2.195498,34.506619 -0.5,28.6341585 -0.5,22.1105486 C-0.5,15.6159829 2.19384968,9.75604032 7.08179452,5.61888025 C11.7483368,1.67001428 18.1164838,-0.5 25.0132003,-0.5 L26.6761418,-0.5 Z M25.0132003,11.6878522 C19.3918924,11.6878522 14.8157436,16.3604438 14.8157436,22.1109012 C14.8157436,27.8585761 19.3922466,32.5306004 25.0132003,32.5306004 C27.9032763,32.5306004 30.6205073,31.2964381 32.5529933,29.1082942 L32.5529933,27.2276818 L27.001048,27.2276819 C26.4689121,27.2276819 25.9300814,27.3518321 25.4157686,27.5599337 C25.1069402,27.684892 25.0409566,27.7204883 24.7619268,27.8838182 L22.3704694,29.4451352 L21.5971303,29.9500272 L21.5971303,25.8869049 L21.6384202,25.687945 L25.5275135,16.7214789 L25.658086,16.4204387 L33.9869271,16.4204387 C31.9492925,13.5426951 28.5141618,11.691003 25.0230918,11.6878523 Z" id="Shape" stroke="#DED8CE" fill="#DED8CE" fill-rule="nonzero"></path>
            <path d="M25.0132003,1.48754818 C12.043289,1.48754818 1.52863669,9.64303214 1.52863669,22.1111785 C1.52863669,34.6584837 12.043289,42.7312828 25.0132003,42.7312828 C32.7533861,42.7312828 37.2574942,39.8452439 39.7895549,39.8452439 C41.8076034,39.8452439 45.0856821,41.2926708 45.0856821,41.2926708 L45.0856821,22.1111785 C45.0856821,19.725833 46.415714,18.4053424 46.415714,18.4053424 L37.2734946,18.4088684 L27.001248,18.4123944 L27.001248,18.4106314 L23.625167,26.1872456 L23.625167,26.2348467 C23.625167,26.2348467 25.1052025,25.240512 27.001248,25.240512 L34.58143,25.240512 L34.58143,29.8296135 C32.3433762,32.6892074 28.8872933,34.5174433 25.0132003,34.5174433 C18.2620383,34.5174433 12.7881069,28.9622152 12.7881069,22.1111785 C12.7881069,15.2552054 18.2620383,9.7001535 25.0132003,9.7001535 C30.4953319,9.7001535 35.5614535,13.3620908 37.2734946,18.4088684 L43.9216541,10.8057338 C43.9216541,10.8057338 38.1395153,1.48754818 25.0132003,1.48754818 L25.0132003,1.48754818 Z" id="Path" fill="#2B2F38"></path>
        </g>
    </g>
</svg>