<?xml version="1.0" encoding="UTF-8"?>
<svg width="56px" height="56px" viewBox="0 0 56 56" version="1.1" xmlns="http://www.w3.org/2000/svg" xmlns:xlink="http://www.w3.org/1999/xlink">
    <title>Google Scholar</title>
    <g id="Google-Scholar" stroke="none" stroke-width="1" fill="none" fill-rule="evenodd">
        <path d="M23.3455498,7.140625 L9.59375,19.2216454 L18.4617331,19.2216454 C19.1043405,25.0051126 23.7311143,27.447021 28.4864096,27.8325855 C27.5867591,30.1459724 27.9723236,31.3026658 29.38606,32.8449237 C23.8596358,32.9734452 16.1483462,36.1864826 16.1483462,41.4558638 C16.6624322,47.239331 24.2452003,48.3960245 27.9723236,48.3960245 C32.8561404,48.524546 38.3825646,45.9541161 39.539258,41.4558638 C40.053344,36.9576115 38.2540431,34.5157032 35.5550917,32.3308378 C32.5990974,30.0174509 31.9564899,28.7322359 32.8561404,27.189978 C34.7839628,25.0051126 37.3543926,23.7198977 37.8684786,20.6353818 C38.1255216,18.4505164 37.6114356,17.03678 37.0973497,15.1089576 L42.8808169,10.2251408 L42.7522954,12.2814847 C42.3667309,12.5385277 42.1096879,13.0526137 42.1096879,13.4381782 L42.1096879,26.675892 C42.3667309,28.3466715 44.9371608,28.0896285 45.0656823,26.675892 L45.0656823,13.4381782 C45.0656823,13.0526137 44.8086393,12.5385277 44.4230748,12.4100062 L44.4230748,9.1969689 L46.4794187,7.140625 L23.3455498,7.140625 Z M30.7997965,25.2621556 C22.9599853,26.5473706 19.6184265,14.0807857 25.9159797,12.5385277 C33.1131834,11.1247913 36.5832637,23.5913762 30.7997965,25.2621556 Z M30.157189,34.6442247 C37.8684786,36.3150041 37.9970001,42.7410788 31.4424039,44.6689012 C25.7874582,45.8255946 20.9036414,44.1548152 21.0321629,40.8132564 C21.0321629,37.600219 25.5304152,34.6442247 30.157189,34.6442247 Z" id="Shape" fill="#000000" fill-rule="nonzero"></path>
    </g>
</svg>