<?xml version="1.0" encoding="UTF-8"?>
<svg width="24px" height="24px" viewBox="0 0 24 24" version="1.1" xmlns="http://www.w3.org/2000/svg" xmlns:xlink="http://www.w3.org/1999/xlink">
    <title>llm-development</title>
    <g id="llm-development" stroke="none" fill="none" fill-rule="evenodd" stroke-linecap="round" stroke-linejoin="round" stroke-width="1">
        <g id="Group" stroke="#000000">
            <polyline id="Path" stroke-width="2" points="12 6 12 2 8 2"></polyline>
            <line x1="15" y1="11" x2="15" y2="13" id="Path" stroke-width="2"></line>
            <line x1="2" y1="12" x2="4" y2="12" id="Path" stroke-width="2"></line>
            <line x1="20" y1="12" x2="22" y2="12" id="Path" stroke-width="2"></line>
            <path d="M20,16 C20,17.1045695 19.1045695,18 18,18 L8.828,18 C8.29761037,18.0001133 7.78898546,18.2109013 7.414,18.586 L5.212,20.788 C5.00894303,20.9910199 4.70359175,21.0517466 4.43830716,20.941868 C4.17302256,20.8319894 4,20.5731397 4,20.286 L4,8 C4,6.8954305 4.8954305,6 6,6 L18,6 C19.1045695,6 20,6.8954305 20,8 L20,16 Z" id="Path" stroke-width="2"></path>
            <line x1="9" y1="11" x2="9" y2="13" id="Path" stroke-width="2"></line>
        </g>
    </g>
</svg>