<?xml version="1.0" encoding="UTF-8"?>
<svg width="64px" height="64px" viewBox="0 0 64 64" version="1.1" xmlns="http://www.w3.org/2000/svg" xmlns:xlink="http://www.w3.org/1999/xlink">
    <title>signal</title>
    <g id="signal" stroke="none" fill="none" fill-rule="evenodd" stroke-width="1">
        <g id="Camada_1" transform="translate(6, 6)" fill="#000000">
            <path d="M47.2,26 C46.8,34 43.4,40.4 36.2,44.4 C32.6,46.4 28.8,47.2 24.6,47 C21.2,46.8 18,45.8 15.2,44 C14.8,44 14.6,44 14.2,44 C11.6,44.6 9.2,45.2 6.6,45.8 C6.2,46 6,45.8 6.2,45.4 C6.8,42.8 7.4,40.4 8,37.8 C8,37.4 8,37.2 7.8,36.8 C0.2,24.2 7.8,7.6 22.4,5.2 C33.8,3.2 44.8,10.8 46.8,22.4 C47,23.6 47.2,24.8 47.2,26 L47.2,26 Z" id="Path"></path>
            <g id="Group">
                <path d="M3.2,51.2 C1.6,51.2 0.4,49.8 0.8,48.4 C1.2,46.8 1.6,45.2 2,43.4 C2,43.2 2.2,43.2 2.4,43.2 C3,43.4 3.6,43.4 4.2,43.6 C4.6,43.6 4.4,43.8 4.4,44 C4.2,45.4 3.8,46.6 3.4,48 C3.2,48.6 3.2,48.6 4,48.4 C5.4,48.2 6.6,47.8 8,47.4 C8.4,47.4 8.4,47.4 8.6,47.8 C8.6,48.4 8.8,48.8 9,49.4 C9,49.6 9,49.8 8.8,49.8 C6.8,50.4 5.2,50.8 3.2,51.2 C3.4,51.2 3.4,51.2 3.2,51.2 L3.2,51.2 Z" id="Path"></path>
                <path d="M13.4,48.8 C12.8,49 12.2,49 11.4,49.2 C11,49.4 10.8,49.2 10.8,48.8 C10.8,48.2 10.6,47.8 10.4,47.2 C10.4,47 10.4,46.8 10.6,46.8 C11.6,46.6 12.6,46.4 13.6,46.2 C13.8,46.2 14,46.2 14,46.2 C15.8,47.2 17.8,48 19.8,48.6 C20,48.6 20.2,48.8 20,49 C19.8,49.4 19.8,50 19.6,50.4 C19.6,50.8 19.4,50.8 19,50.8 C17.2,50.4 15.4,49.6 13.8,48.8 C13.8,49 13.8,48.8 13.4,48.8 L13.4,48.8 Z" id="Path"></path>
                <path d="M5.8,38.2 C5.6,39 5.4,39.8 5.2,40.8 C5,41.8 5.2,41.6 4.2,41.4 C3.8,41.4 3.4,41.2 3,41.2 C2.8,41.2 2.6,41 2.8,40.8 C3,40.2 3,39.6 3.2,39 C3.2,38.8 3.2,38.6 3.2,38.2 C2.4,36.6 1.6,34.8 1.2,33 C1,32.4 1,32.4 1.6,32.4 C2,32.2 2.6,32.2 3,32 C3.2,32 3.4,32 3.4,32.2 C4,34.2 4.8,36.2 5.8,38 C5.6,38 5.8,38 5.8,38.2 Z" id="Path"></path>
                <path d="M46.8,10.6 C46.8,10.8 46.6,10.8 46.6,10.8 C46.2,11.2 45.6,11.4 45.2,11.8 C45,12 44.8,12 44.8,11.8 C43.4,10 42,8.6 40.2,7.2 C40,7 40,7 40.2,6.8 C40.6,6.4 41,5.8 41.2,5.4 C41.4,5.2 41.4,5.2 41.6,5.4 C43.6,6.8 45.2,8.4 46.8,10.6 C46.8,10.4 46.8,10.4 46.8,10.6 L46.8,10.6 Z" id="Path"></path>
                <path d="M32.4,0.8 C32.4,0.8 32.6,0.8 32.6,0.8 C34.8,1.4 37,2.2 39,3.4 C39.4,3.6 39.4,3.8 39.2,4 C39,4.4 38.6,5 38.4,5.4 C38.2,5.6 38.2,5.6 38,5.6 C36.2,4.6 34.2,3.6 32,3.2 C31.8,3.2 31.6,3 31.8,2.8 C32,2.2 32,1.6 32.2,1 C32.2,1 32.2,0.8 32.4,0.8 Z" id="Path"></path>
                <path d="M7,12 C7,12 6.8,11.8 7,12 C6.4,11.4 5.8,11.2 5.4,10.8 C5.2,10.6 5.2,10.4 5.4,10.2 C6,9.4 6.8,8.4 7.4,7.6 C8.4,6.8 9.2,6 10.2,5.2 C10.4,5 10.6,5 10.8,5.2 C11.2,5.6 11.4,6.2 11.8,6.6 C12,7 12,7 11.8,7.2 C10,8.6 8.6,10 7.2,11.8 C7.2,11.8 7.2,12 7,12 L7,12 Z" id="Path"></path>
                <path d="M49.2,31.8 C49.8,32 50.4,32 51,32.2 C51.2,32.2 51.2,32.4 51.2,32.6 C50.8,34.2 50.2,35.6 49.6,37 C49.2,37.6 49,38.4 48.6,39 C48.4,39.2 48.4,39.2 48,39.2 C47.6,39 47,38.6 46.6,38.4 C46.4,38.2 46.4,38.2 46.4,38 C47.4,36.2 48.4,34.2 48.8,32 C48.8,31.8 49,31.6 49.2,31.8 L49.2,31.8 Z" id="Path"></path>
                <path d="M2.8,20.2 C2.2,20 1.6,19.8 1,19.8 C0.8,19.8 0.8,19.6 0.8,19.4 C1.2,17.6 2,15.8 2.8,14.2 C3,13.8 3.2,13.4 3.4,13 C3.8,12.6 3.8,12.6 4,12.8 C4.6,13.2 5,13.4 5.6,13.8 C5.8,14 5.8,14 5.6,14.2 C4.6,16 3.6,18 3.2,20.2 C3.2,20.2 3.2,20.4 2.8,20.2 L2.8,20.2 Z" id="Path"></path>
                <path d="M0,26 C0,24.8 0,23.8 0.2,22.6 C0.2,22.2 0.4,22.2 0.8,22.2 C1.2,22.2 1.8,22.4 2.4,22.4 C2.6,22.4 2.8,22.6 2.8,22.8 C2.6,25 2.6,27 2.8,29.2 C2.8,29.4 2.8,29.6 2.6,29.6 C2,29.6 1.4,29.8 0.8,29.8 C0.4,29.8 0.4,29.6 0.4,29.4 C0,28.4 0,27.2 0,26 Z" id="Path"></path>
                <path d="M51.2,19.6 C51.2,19.8 51.2,19.8 51,19.8 C50.4,20 49.8,20 49.2,20.2 C48.8,20.2 48.8,20 48.8,19.8 C48.4,18 47.6,16.4 46.8,14.8 C46.6,14.6 46.6,14.4 46.4,14 C46.2,13.8 46.4,13.8 46.4,13.6 C47,13.2 47.4,13 48,12.6 C48.2,12.6 48.2,12.6 48.4,12.6 C49.6,14.8 50.6,17.2 51.2,19.6 L51.2,19.6 L51.2,19.6 Z" id="Path"></path>
                <path d="M46.8,41.4 C46.8,41.4 46.8,41.6 46.6,41.6 C45.2,43.4 43.4,45.2 41.6,46.6 C41.4,46.8 41.2,46.8 41.2,46.6 C40.8,46.2 40.6,45.6 40.2,45.2 C40,45 40,44.8 40.2,44.6 C41.8,43.4 43.4,41.8 44.6,40.2 C44.8,40 44.8,40 45.2,40.2 C45.6,40.6 46.2,40.8 46.6,41.2 C46.8,41.4 46.8,41.4 46.8,41.4 L46.8,41.4 Z" id="Path"></path>
                <path d="M26,0 C27,0 28.2,0 29.4,0.2 C29.8,0.2 29.8,0.4 29.8,0.8 C29.8,1.2 29.6,1.8 29.6,2.2 C29.6,2.4 29.4,2.6 29.2,2.6 C27.2,2.4 25,2.4 23,2.6 C22.6,2.6 22.6,2.6 22.6,2.2 C22.6,1.6 22.4,1.2 22.4,0.6 C22.4,0.4 22.4,0.2 22.8,0.2 C23.6,0 24.8,0 26,0 Z" id="Path"></path>
                <path d="M26,52 C24.8,52 23.6,52 22.4,51.8 C22,51.8 22,51.6 22,51.2 C22,50.8 22.2,50.2 22.2,49.6 C22.2,49.4 22.4,49.2 22.6,49.2 C24.8,49.4 26.8,49.4 29,49.2 C29.2,49.2 29.4,49.2 29.4,49.6 C29.4,50.2 29.6,50.8 29.6,51.2 C29.6,51.6 29.4,51.6 29.2,51.6 C28.4,52 27.2,52 26,52 L26,52 Z" id="Path"></path>
                <path d="M19.6,0.8 C19.8,0.8 19.8,0.8 19.8,1 C20,1.6 20,2.2 20.2,2.8 C20.2,3.2 20,3.2 19.8,3.2 C18,3.6 16.2,4.4 14.6,5.2 C14,5.6 13.6,5.6 13.2,5 C13,4.6 13,4.4 12.8,4.2 C12.6,3.8 12.6,3.8 13,3.6 C14.6,2.6 16.4,1.8 18.2,1.2 C18.6,1 19,1 19.6,0.8 L19.6,0.8 Z" id="Path"></path>
                <path d="M52,26 C52,27.2 52,28.2 51.8,29.4 C51.8,29.8 51.6,29.8 51.2,29.8 C50.8,29.8 50.2,29.6 49.8,29.6 C49.2,29.6 49.2,29.6 49.4,29 C49.6,27.2 49.6,25.6 49.4,23.8 C49.4,23.6 49.4,23.2 49.4,22.8 C49.4,22.6 49.4,22.4 49.8,22.4 C50.4,22.4 50.8,22.2 51.4,22.2 C51.8,22.2 51.8,22.2 51.8,22.6 C52,23.6 52,24.8 52,26 Z" id="Path"></path>
                <path d="M32.4,51.2 C32.2,51.2 32.2,51.2 32.2,51 C32,50.4 32,49.8 31.8,49.2 C31.8,49 32,48.8 32.2,48.8 C34,48.4 35.6,47.6 37.2,46.8 C37.4,46.6 37.6,46.6 38,46.4 C38.2,46.2 38.2,46.4 38.4,46.4 C38.8,47 39,47.4 39.4,48 C39.4,48.2 39.4,48.2 39.4,48.4 C37.2,49.6 35,50.6 32.4,51.2 L32.4,51.2 L32.4,51.2 Z" id="Path"></path>
            </g>
        </g>
    </g>
</svg>