<?xml version="1.0" encoding="UTF-8"?>
<svg width="64px" height="64px" viewBox="0 0 64 64" version="1.1" xmlns="http://www.w3.org/2000/svg" xmlns:xlink="http://www.w3.org/1999/xlink">
    <title>wave</title>
    <g id="wave" stroke="none" fill="none" fill-rule="evenodd">
        <g id="hand-shake-svgrepo-com-2" fill="#000000">
            <path d="M29.8416,8.82224 C29.2709333,7.84336 27.6072,7.24973333 25.91752,8.21546667 C24.2338933,9.17768 23.9377867,10.8737867 24.4986667,11.8356267 L31.2338667,23.3852533 C31.7901333,24.33944 31.4677333,25.5640267 30.5136,26.1204533 C29.5594667,26.6768 28.3346667,26.3544267 27.7784,25.40024 L18.79824,10.00072 C18.2274133,9.02184 16.56392,8.42821333 14.8741333,9.39394667 C13.1905067,10.35616 12.8944,12.0522667 13.45528,13.0141067 L23.55792,30.3386667 C24.1143467,31.2928 23.7918933,32.5173333 22.8377067,33.0738667 C21.88352,33.6301333 20.6589333,33.3077333 20.1025067,32.3536 L15.6124533,24.6537867 C15.0416267,23.6749333 13.3781333,23.08128 11.6883467,24.0470133 C10.00472,25.0092267 9.70861333,26.7053333 10.2694933,27.6672 L20.3721333,44.9917333 C24.66264,52.3493333 35.2501333,54.7368 44.2288,49.6056 C53.2013333,44.4776 56.3906667,34.2336 52.1101333,26.8930667 L45.3749333,15.34352 C44.8042667,14.3646667 43.1408,13.7710133 41.4509333,14.7367467 C39.7674667,15.69896 39.4712,17.3950667 40.032,18.3569067 L44.5221333,26.0566667 C44.7909333,26.5174933 44.8642667,27.0666667 44.7264,27.5818667 C44.5882667,28.0970667 44.2501333,28.536 43.7869333,28.8005333 C39.6736,31.1512 38.4130667,35.6968 40.2138667,38.7848 C40.7704,39.7389333 40.4477333,40.9634667 39.4936,41.52 C38.5394667,42.0765333 37.3149333,41.7538667 36.7584,40.7997333 C34.3245333,36.6258667 35.308,31.6002667 38.4517333,28.048 C39.3306667,27.0549333 39.6314667,25.6104267 38.9634667,24.46488 L29.8416,8.82224 Z" id="Path"></path>
            <path d="M11.76888,47.624 C12.7230667,47.0677333 13.9476533,47.3901333 14.50408,48.3442667 C16.70904,52.1256 20.0799467,54.9848 24.23696,56.8402667 C25.2456267,57.2904 25.6983733,58.4730667 25.2481867,59.4818667 C24.798,60.4904 23.61536,60.9432 22.6066933,60.4930667 C17.776,58.3370667 13.7232,54.9456 11.0486667,50.3592 C10.49224,49.4050667 10.8146933,48.1805333 11.76888,47.624 Z" id="Path" fill-opacity="0.4"></path>
            <path d="M50.4141333,10.4585067 C47.7104,7.69722667 43.8544,6.67872 40.0797333,7.7528 C39.0173333,8.05509333 37.9109333,7.43890667 37.6088,6.37650667 C37.3064,5.31410667 37.9226667,4.20778667 38.9850667,3.90549333 C44.1536,2.43485867 49.5306667,3.83890667 53.2722667,7.66 C54.0450667,8.44922667 54.0317333,9.71549333 53.2424,10.4882667 C52.4533333,11.2610667 51.1869333,11.2477333 50.4141333,10.4585067 Z" id="Path" fill-opacity="0.4"></path>
        </g>
    </g>
</svg>