<?xml version="1.0" encoding="UTF-8"?>
<svg width="1200px" height="1200px" viewBox="0 0 1200 1200" version="1.1" xmlns="http://www.w3.org/2000/svg" xmlns:xlink="http://www.w3.org/1999/xlink">
    <title>favicon</title>
    <g id="favicon" stroke="none" fill="none" fill-rule="evenodd" stroke-width="1">
        <g id="noun-person-1067044" transform="translate(255, 28)" fill="#EA7050" stroke="#EA7050">
            <path d="M689.180442,332.370579 C689.353326,317.875185 665.744061,317.886745 665.570879,332.370579 C664.54487,416.840186 680.99469,499.404304 701.327259,581.30757 C704.006967,592.092174 733.122574,678.036657 720.005936,682.622161 C703.194742,688.484959 669.794604,677.109248 651.139017,678.091471 C645.12199,678.415096 638.819018,682.994685 639.337603,689.339442 C640.96494,708.794117 646.230357,727.199713 650.503053,746.06386 C600.67176,757.853229 509.013084,770.384371 485.623847,721.107544 C479.355032,707.929037 459.02304,719.372759 465.22393,732.460519 C487.934869,780.240315 550.054363,787.524803 607.191064,779.859498 C618.480628,804.33029 650.029688,847.376524 610.462431,852.407091 C596.399063,854.187057 583.744245,857.122165 570.906623,862.751449 C543.024267,874.970468 526.838295,888.304362 508.723422,910.810902 C464.307925,966.045031 457.088535,1030.57809 381.108633,983.877233 C374.42241,980.573151 365.256751,969.336619 359.656152,977.679481 C347.247689,996.163592 341.20646,1019.76882 336.415082,1042.9497 C332.491444,1061.97954 339.993029,1081.51321 336.57669,1100.61048 C332.374902,1124.18248 283.531426,1096.12793 277.837576,1090.19769 C266.487398,1078.39291 252.841511,1067.96671 250.751778,1051.80858 C248.929034,1037.60316 225.293012,1037.45287 227.15376,1051.80858 C231.889239,1088.66409 283.809956,1127.71987 325.58346,1131.37382 C344.762442,1133.0484 359.735017,1114.77545 360.716384,1098.23296 C361.629651,1082.71835 359.239331,1067.33475 359.156684,1051.80858 C359.074002,1036.08686 365.530757,1020.13489 372.423414,1005.24453 C450.528647,1051.72959 467.210529,1000.83456 515.643856,939.101727 C546.95426,899.182796 573.219779,881.09438 626.282847,871.972503 C680.037683,862.722886 644.204492,807.900361 629.889047,773.652619 C641.066043,771.526525 658.521367,767.433368 667.38734,765.085224 C673.97943,763.350439 676.798069,757.291987 675.62928,751.270912 C672.325731,734.209176 667.143057,717.790953 664.383974,700.729217 C702.79774,702.938159 750.166958,717.46727 745.446777,664.359235 C741.207466,616.666141 721.833366,568.126269 711.269243,521.360872 C697.193012,459.10678 688.405932,396.105231 689.180442,332.370579 Z" id="Path" stroke-width="32" fill-rule="nonzero"></path>
            <path d="M589.436565,475.263047 C547.642789,461.190135 522.027093,422.003747 482.156417,403.978279 C468.484136,397.790341 456.517645,417.17049 470.249542,423.38165 C485.630498,430.318569 504.857244,444.327631 512.595495,450.301238 C520.333746,456.274846 523.459785,460.462347 526.785442,466.597233 C529.922685,472.384551 533.191658,494.712951 532.893552,508.828164 C533.191658,516.078109 532.958882,529.983659 535.821032,535.456726 C541.774373,546.835501 560.742439,540.114404 557.120112,529.35611 C556.676558,528.038757 546.747965,491.737013 557.995713,482.169671 C566.198889,487.19834 573.635796,493.685602 583.168604,496.91529 C597.562048,501.778322 603.680392,480.052848 589.44118,475.264878 L589.436565,475.263047 Z" id="Path" stroke-width="24" fill-rule="nonzero"></path>
            <path d="M260.982273,883.873017 C269.517127,840.209571 268.501957,811.910045 263.501379,767.863079 C260.463475,741.152559 248.578476,698.342878 215.142473,693.26943 C189.489402,689.36225 194.388626,650.35086 195.832406,629.779549 C198.039463,598.074599 203.457389,566.587426 245.025817,582.912074 C254.173506,586.495575 257.980467,584.493481 260.982273,580.262052 C263.501379,575.868834 264.730902,566.398749 265.227177,562.096293 C278.187503,449.372291 245.582153,301.225701 383.491953,250.144325 C476.473266,215.710409 584.235028,252.989888 681.13187,253.576731 C696.35508,253.670834 696.344492,231.202491 681.13187,231.10902 C571.231389,230.41642 452.302475,191.977468 349.563139,239.965631 C224.397098,298.418682 253.370861,449.533215 242.020831,558.094388 C206.445146,547.641063 183.807649,562.776992 175.306676,600.011759 C168.884842,628.110852 159.669584,699.870501 193.534871,713.81694 C203.652877,717.980058 211.68029,713.075408 221.936898,722.060401 C232.907696,731.72645 236.017596,748.575306 238.893605,761.801923 C245.014652,790.029178 242.577263,817.157479 242.020831,845.775962 C240.599574,917.930694 233.151167,911.257843 193.759725,963.454278 C184.895517,975.199978 198.033843,989.829075 209.348792,976.612724 C220.663741,963.396374 250.691014,936.580016 260.982273,883.873017 Z" id="Path" stroke-width="32" fill-rule="nonzero"></path>
            <path d="M757.284339,139.12259 C741.583209,174.82589 687.300784,147.398163 664.473534,134.945694 C624.862815,113.334848 575.863454,83.8326719 537.649413,61.9118182 C489.7267,34.421745 409.129445,25.400877 358.014184,71.3029405 C344.92125,83.0469703 340.440848,95.8316708 342.117752,107.426897 C336.206865,117.838774 317.77377,109.421324 289.860789,101.19298 C261.947808,92.9646368 230.746624,94.2681935 205.187638,109.095493 C175.016595,126.598343 167.15174,151.8493 164.132247,164.772438 C160.748788,179.253314 166.881891,203.690552 175.016595,215.884653 C191.897306,241.189209 221.124148,252.293956 245.470003,248.207861 C254.975098,246.616597 272.904659,238.636376 283.638319,227.2306 C292.144839,218.191424 294.759567,206.200136 294.759567,199.179945 C294.759567,180.56387 274.103329,165.692309 252.810361,161.299772 C243.112978,159.295551 238.01832,163.966922 243.36853,168.102878 C246.204244,170.295014 255.673612,172.132055 260.824976,173.194397 C270.833308,175.256747 286.002067,192.753057 280.877988,207.969869 C275.75391,223.186681 266.656341,233.863875 252.810361,235.084522 C238.964382,236.30517 223.947694,235.44411 214.573767,230.80799 C205.015534,226.080716 197.626167,222.189858 188.536307,213.575815 C179.446447,204.961773 175.016595,190.302474 175.016595,176.638395 C175.016595,157.237811 188.289223,134.261795 205.187638,122.990825 C214.249095,116.946979 225.948128,114.537034 245.470003,110.981965 C264.991877,107.426897 280.368962,112.26609 289.860789,114.337389 C314.334043,119.677922 335.101705,123.866822 361.077839,136.478872 C391.428548,151.211372 416.785098,175.394421 440.846831,161.91129 C467.871681,141.554884 472.880787,124.870483 464.172509,109.095493 C460.034518,101.599547 440.963242,101.655611 440.846831,110.981965 C440.707782,125.118298 430.868821,130.833878 426.111052,136.478872 C411.161305,138.815087 376.401247,119.65823 369.25781,114.337389 C343.755018,95.37162 407.508149,65.2093419 418.80873,61.9118182 C482.489705,43.4153527 559.222854,100.806452 610.982708,130.29053 C655.039194,155.370596 748.608118,216.541234 780.058482,145.02303 C785.87983,131.784288 763.034493,126.072523 757.295692,139.120968 L757.284339,139.12259 Z" id="Path" stroke-width="32" fill-rule="nonzero"></path>
            <path d="M184.101053,40.0042215 C213.799799,46.0815875 239.101903,45.7337864 267.858525,34.3547102 C281.714917,28.8624209 290.598954,7.97093316 276.523761,13.5460265 C264.030174,18.4886769 240.172111,27.2375466 225.313221,27.2375466 C204.86564,27.2375466 183.057018,19.8252724 164.36377,23.1322269 C123.55366,30.3517952 101.437676,74.146629 77.3141824,110.332473 C53.1906883,146.518318 75.2165154,146.151061 84.569428,131.421174 C116.927041,80.4612193 146.390854,32.2874416 184.101053,40.0042215 Z" id="Path" stroke-width="32" fill-rule="nonzero"></path>
            <path d="M198.599183,297.048074 C189.979841,299.959779 167.528136,308.112994 139.873297,303.892536 C108.955277,299.174079 74.90079,290.197199 35.503986,303.892536 C-10.9925361,320.055917 -36.4252199,347.73148 -49.3981036,380.303937 C-62.5565287,413.342253 -51.2500591,469.991663 -13.6302931,498.8086 C8.79409468,515.985799 55.0998072,524.097388 78.7460743,524.097388 C100.261719,524.097388 120.467446,513.540547 133.982583,498.8086 C145.378889,486.386251 151.699206,472.016746 156.955545,454.069214 C164.278894,429.063965 151.093948,401.291958 136.15534,389.356993 C116.311873,373.503368 89.3209159,372.70952 68.4784506,377.412931 C43.2054353,383.116163 28.8998744,410.6689 50.1696378,434.832353 C59.9727271,445.972766 78.1911889,435.881552 68.4784506,424.843249 C64.2468634,420.03598 62.8799572,410.538988 63.0398995,406.645706 C63.8995953,385.719178 128.909124,399.38841 136.15534,427.832353 C141.921807,450.467762 130.261379,468.476095 120.467446,480.645774 C110.250055,493.341629 91.6916658,503.27339 79.4822645,504.637748 C54.1926669,507.463772 14.1963483,495.511539 -3.78398708,480.645774 C-30.8794983,458.243771 -36.7866044,415.226274 -31.1111653,394.916356 C-22.5475067,364.270761 -1.50644948,333.918048 48.3742478,319.678887 C75.466813,311.944926 107.998261,319.158673 132.15534,323.899344 C158.120597,328.99486 179.125585,323.899344 198.599183,318.621176 C218.072782,313.343008 243.001265,282.048583 198.599183,297.048074 Z" id="Path" stroke-width="32" fill-rule="nonzero"></path>
            <path d="M89.0757564,584.146624 C63.239519,661.320817 -55.9930989,659.658859 -90.8496804,733.674752 C-97.0181399,746.778805 -76.662474,758.217047 -70.4450998,744.984929 C-34.9270136,669.589206 83.9252632,673.553449 111.868302,590.103099 C116.487184,576.273023 93.6783658,570.389729 89.0824967,584.141425 L89.0757564,584.146624 Z" id="Path" stroke-width="32" fill-rule="nonzero"></path>
            <path d="M125.702191,785.127375 C135.769437,790.536939 127.630407,806.00269 117.072488,814.457675 C97.0265468,830.510852 76.2787132,824.484345 64.5160972,807.683152 C47.6666973,783.616225 74.2787132,728.30137 100.172583,723.832566 C115.166908,721.267622 108.79391,699.53121 93.8902209,702.095864 C42.4827623,710.927868 14.0462298,804.502478 60.2489194,836.662198 C69.7760315,843.298175 85.2997112,848.720044 100.172583,846.168494 C115.052038,843.615814 129.280428,833.086395 137.641919,824.717165 C155.5626,806.727837 157.253138,776.17942 137.641727,765.655827 C124.334951,758.495103 112.418363,777.991408 125.702191,785.127375 Z" id="Path" stroke-width="24" fill-rule="nonzero"></path>
            <path d="M83.6549202,228.790093 C97.8188105,223.770259 91.6876928,202.128014 77.3615321,207.207831 C56.0364932,214.76191 32.9564223,220.602692 10.5862846,213.704679 C-14.3009766,206.023148 -14.7153458,175.746655 -12.9651433,155.832392 C-11.7011725,141.448056 -35.4144844,141.552666 -36.6672508,155.832392 C-39.2177942,184.879384 -34.6616394,215.713294 -6.37152867,231.845287 C21.918582,247.977279 56.9160375,238.267362 83.6549202,228.790093 Z" id="Path" stroke-width="32" fill-rule="nonzero"></path>
            <path d="M301.874637,662.548337 C325.20797,662.548337 325.20797,629.548337 301.874637,629.548337 C278.541303,629.548337 278.541303,662.548337 301.874637,662.548337 Z" id="Path" stroke-width="32" fill-rule="nonzero"></path>
        </g>
    </g>
</svg>