<?xml version="1.0" encoding="UTF-8"?>
<svg width="1200px" height="1200px" viewBox="0 0 1200 1200" version="1.1" xmlns="http://www.w3.org/2000/svg" xmlns:xlink="http://www.w3.org/1999/xlink">
    <title>favicon-light</title>
    <g id="favicon-light" stroke="none" stroke-width="1" fill="none" fill-rule="evenodd">
        <rect id="Rectangle" fill="#FAFAFA" x="50" y="50" width="1100" height="1100" rx="96"></rect>
        <g id="noun-person-1067044" transform="translate(270, 100)" fill="#B24D66" fill-rule="nonzero" stroke="#B24D66" stroke-width="16">
            <path d="M624.205502,436.145499 C611.61596,380.486097 603.75621,324.156587 604.448983,267.171612 C604.603622,254.21132 583.48592,254.221656 583.331014,267.171612 C582.413283,342.695653 597.127101,416.516001 615.313907,489.745484 C617.710816,499.387968 643.753758,576.230691 632.021362,580.330578 C616.984308,585.572489 587.108996,575.401498 570.422194,576.2797 C565.040163,576.569052 559.402365,580.66365 559.866222,586.33648 C561.32182,603.730851 566.03156,620.187244 569.853346,637.053625 C525.280911,647.594467 443.295274,658.798526 422.37438,614.740252 C416.767132,602.957385 398.580843,613.189186 404.127332,624.890916 C424.441512,667.610698 485.731729,670.419465 536.838608,663.565936 C546.936748,685.445204 569.429936,727.636996 534.038341,732.134813 C521.459126,733.726275 510.139812,736.350547 498.656986,741.383674 C473.717146,752.308665 454.766998,775.853727 438.563847,795.976761 C398.835663,845.361443 357.557559,909.78306 289.596064,868.027957 C289.347302,858.530174 275.107204,852.245117 270.407533,862.486565 C261.566713,881.751724 253.904898,900.118526 249.61917,920.844485 C246.109606,937.859013 252.819524,955.324012 249.763723,972.398833 C246.005363,993.474488 216.190463,966.517649 211.097504,961.215445 C200.945147,950.660822 191.062154,935.58082 189.192957,921.133888 C187.562573,908.432854 166.420938,908.298488 168.085315,921.133888 C172.321043,954.086294 202.565634,996.637257 239.930644,999.904247 C257.085605,1001.40148 270.478076,985.063692 271.355875,970.273093 C272.172763,956.401524 270.034701,942.647094 269.960776,928.765189 C269.88682,914.708436 275.662172,900.445827 281.827424,887.132394 C351.689958,928.694561 401.431945,876.46666 444.753945,821.27151 C472.76006,785.580104 495.750669,759.21594 543.213818,751.060095 C591.29573,742.790038 570.641618,690.811576 557.836929,660.190765 C567.83438,658.28983 577.02546,656.160043 584.955779,654.060574 C590.852183,652.509507 593.373362,647.092662 592.32792,641.709235 C589.373005,626.454385 584.737275,611.774897 582.269367,596.520047 C616.629204,598.495055 658.999393,611.485493 654.777349,564.001747 C650.985426,521.359483 633.655937,477.960119 624.206681,436.147308 L624.205502,436.145499 Z" id="Path"></path>
            <path d="M547.432205,395.825468 C510.049062,383.242916 487.136675,348.206476 451.473681,332.089954 C439.24428,326.557336 428.540652,343.885073 440.823377,349.438454 C454.581131,355.640735 466.4407,364.326443 477.957959,373.5077 C477.853812,376.22684 478.959172,388.473312 480.901048,390.822342 C485.742322,396.674671 489.951613,402.917271 493.4934,409.503619 C495.515952,414.622275 497.797128,419.623074 500.357226,424.516528 C505.682292,434.69026 523.559458,427.535221 519.634938,416.772896 C519.211618,415.605101 518.664,405.051437 518.200334,403.903888 C525.537802,408.400007 533.298943,412.297023 541.825723,415.184677 C554.70018,419.532701 560.172835,400.108015 547.436334,395.827104 L547.432205,395.825468 Z" id="Path"></path>
            <path d="M179.197633,886.186563 C207.783481,847.210953 231.018576,807.393591 240.223765,760.26841 C247.857907,721.229043 246.949872,695.926516 242.477021,656.544246 C239.759717,632.662444 229.128981,594.386427 199.221588,589.850272 C176.275769,586.356873 180.657962,551.476898 181.949375,533.084145 C183.923514,504.736837 188.769669,476.584243 225.951245,491.180066 C234.133549,494.384065 237.538748,492.593998 240.223765,488.810688 C242.477021,484.882725 243.576788,476.415548 244.02069,472.568734 C255.61327,371.782517 226.448869,239.325062 349.804598,193.653346 C432.97329,162.866078 529.362603,196.197556 616.033605,196.722251 C629.650259,196.806388 629.640789,176.717505 616.033605,176.633933 C517.73128,176.014681 411.353322,141.646521 319.456403,184.552604 C207.499542,236.815315 233.41561,371.926399 223.263385,468.990642 C191.442118,459.644353 171.19363,473.177345 163.589793,506.468847 C157.845676,531.592168 149.602934,595.752271 179.894307,608.221744 C188.944526,611.943976 196.12478,607.558741 205.298975,615.592199 C215.111989,624.234587 217.893692,639.299102 220.466185,651.124984 C225.941258,676.362893 223.761095,700.618232 223.263385,726.205938 C221.992119,790.719284 199.41022,823.696179 160.987252,876.062279 C153.141232,886.704366 171.470078,896.720093 179.208223,886.185702 L179.197633,886.186563 Z" id="Path"></path>
            <path d="M637.832856,113.012385 C623.788717,144.934607 575.234893,120.411552 554.816678,109.277834 C519.386207,89.9556367 485.660481,68.6172987 448.229237,52.7329443 C393.755705,29.6027658 330.153484,24.0754369 284.432583,65.1163443 C272.721389,75.6166488 268.713818,87.047414 270.213753,97.4146737 C254.568995,89.1160047 239.408726,79.9448689 223.370698,72.3323187 C193.806581,58.2798888 138.448407,70.719577 120.345925,100.59325 C100.519766,133.311182 143.436141,167.872126 175.706681,162.458226 C208.236245,157.014648 223.645213,115.85417 187.811489,108.465067 C174.540122,105.723321 168.893208,124.902069 182.194436,127.643986 C199.532752,131.2153 174.116733,142.029028 170.099696,143.268221 C153.60816,148.37535 145.256302,132.145335 140.456167,120.364901 C129.107263,92.5269832 188.15743,82.8820885 201.832393,85.4508765 C227.722832,90.3314883 253.525495,111.866238 276.760284,123.142637 C303.907983,136.314924 324.354474,143.268221 345.876894,131.212991 C370.049724,113.012385 379.373715,98.0271915 357.554528,75.4692761 C351.184495,68.8796357 339.627598,74.1599789 339.523471,82.4986466 C339.399096,95.137902 336.951897,103.426763 332.69623,108.473937 C319.324179,110.56274 300.879199,108.350674 294.489632,103.593325 C271.678233,86.6360839 328.703288,59.6680748 338.811282,56.719768 C395.771796,40.1821296 460.673445,78.7540327 506.970913,105.115665 C546.377975,127.539682 630.072264,182.232179 658.20357,118.287952 C663.410572,106.45123 642.976178,101.344356 637.84301,113.010935 L637.832856,113.012385 Z" id="Path"></path>
            <path d="M131.74164,35.2781201 C153.20671,9.35729155 193.042427,24.2881015 221.372868,30.6361894 C247.654742,36.5276854 275.426875,41.3476095 301.148716,31.1736091 C313.542798,26.2629685 308.116084,6.85214171 295.526292,11.8368172 C241.081383,33.3671415 160.263993,-31.4224617 116.764328,21.0907551 C108.438556,31.1503926 123.320516,45.442318 131.737671,35.278636 L131.74164,35.2781201 Z" id="Path"></path>
            <path d="M273.013877,161.153422 C198.535043,171.333214 123.787969,224.213425 89.5615281,288.07939 C68.7832154,326.859592 65.16283,391.10265 120.667095,401.932216 C163.234781,410.23776 226.338331,337.105829 195.417608,303.223524 C160.185266,264.621945 97.243348,310.865056 132.112018,350.461143 C140.880556,360.421755 155.718032,346.102739 147.03031,336.233423 C143.245296,331.935257 141.759827,327.955409 141.90289,324.474437 C142.67186,305.764086 190.490758,301.466735 181.157881,339.621049 C176.184085,359.896068 140.578785,385.311464 118.695701,381.044356 C82.4015732,373.962424 98.2569871,318.820516 107.78124,298.234848 C135.655887,238.009516 212.064245,189.670992 278.625689,180.558624 C292.048885,178.724932 286.32307,159.339577 273.013877,161.153422 Z" id="Path"></path>
            <path d="M161.966242,416.544291 C138.856586,485.545522 32.2069754,484.05957 1.02892261,550.236975 C-4.4885592,561.953272 13.7189069,572.180172 19.2801413,560.349373 C51.0498881,492.938265 157.359297,496.482684 182.353415,421.869959 C186.484852,409.504526 166.083123,404.244289 161.97227,416.539642 L161.966242,416.544291 Z" id="Path"></path>
            <path d="M106.302112,593.242554 C94.3994714,586.84216 83.7404802,604.273752 95.6224223,610.654 C104.627239,615.490676 108.909292,622.387293 98.9138677,628.781375 C86.9508555,636.428162 73.6200014,626.238095 67.491448,616.723839 C53.1567046,594.455658 75.9070402,566.361468 99.0682458,562.365923 C112.48017,560.072613 106.779736,540.638148 93.4488815,542.931198 C47.4666196,550.827868 22.3478302,613.880007 63.6745994,642.633924 C80.7217407,654.502967 103.37393,654.306691 118.328773,639.344192 C134.358226,623.259983 123.843695,602.653658 106.30194,593.244543 L106.302112,593.242554 Z" id="Path"></path>
            <path d="M36.3503325,214.160789 C59.9978178,227.638747 92.1605058,220.49252 116.077547,212.01892 C128.746676,207.5307 123.262595,188.180429 110.448321,192.722279 C91.3737827,199.476361 70.7294269,204.698587 50.7200827,198.531093 C28.4592554,191.663058 28.088616,164.592929 29.6541139,146.787642 C30.7846936,133.926647 9.57392486,134.020179 8.45336703,146.787642 C6.17199077,172.758477 11.045251,199.737562 36.3498141,214.161132 L36.3503325,214.160789 Z" id="Path"></path>
            <path d="M221.172962,567.594433 C235.089463,567.594433 235.089463,547.713718 221.172962,547.713718 C207.256461,547.713718 207.256461,567.594433 221.172962,567.594433 Z" id="Path"></path>
        </g>
    </g>
</svg>