<?xml version="1.0" encoding="UTF-8"?>
<svg width="1200px" height="1200px" viewBox="0 0 1200 1200" version="1.1" xmlns="http://www.w3.org/2000/svg" xmlns:xlink="http://www.w3.org/1999/xlink">
    <title>favicon</title>
    <g id="favicon" stroke="none" fill="none" fill-rule="evenodd" stroke-width="1">
        <g id="noun-person-1067044" transform="translate(252, 115)" fill="#EA7050" stroke="#EA7050">
            <path d="M604.448983,267.171612 C604.603622,254.21132 583.48592,254.221656 583.331014,267.171612 C582.413283,342.695653 597.127101,416.516001 615.313907,489.745484 C617.710816,499.387968 643.753758,576.230691 632.021362,580.330578 C616.984308,585.572489 587.108996,575.401498 570.422194,576.2797 C565.040163,576.569052 559.402365,580.66365 559.866222,586.33648 C561.32182,603.730851 566.03156,620.187244 569.853346,637.053625 C525.280911,647.594467 443.295283,658.798526 422.37438,614.740252 C416.767132,602.957385 398.580843,613.189186 404.127332,624.890916 C424.441512,667.610698 480.005333,674.123739 531.112212,667.27021 C541.210351,689.149478 569.429936,727.636996 534.038341,732.134813 C521.459126,733.726275 510.139812,736.350547 498.656986,741.383674 C473.717146,752.308665 454.766998,775.853727 438.563847,795.976761 C398.835663,845.361443 357.557559,909.78306 289.596064,868.027957 C289.347302,858.530174 275.107204,852.245117 270.407533,862.486565 C261.566713,881.751724 253.904898,900.118526 249.61917,920.844485 C246.109606,937.859013 252.819524,955.324012 249.763723,972.398833 C246.005363,993.474488 202.316498,968.39099 197.223538,963.088786 C187.071182,952.534163 174.86539,943.212121 172.996193,928.765189 C171.365809,916.064155 150.224174,915.929789 151.888551,928.765189 C156.124279,961.717595 202.565634,996.637257 239.930644,999.904247 C257.085605,1001.40148 270.478076,985.063692 271.355875,970.273093 C272.172763,956.401524 270.034701,942.647094 269.960776,928.765189 C269.88682,914.708436 275.662172,900.445827 281.827424,887.132394 C351.689958,928.694561 401.431945,876.46666 444.753945,821.27151 C472.76006,785.580104 500.726027,757.784038 548.189177,749.628193 C596.271089,741.358136 564.219492,692.341469 551.414803,661.720658 C561.412254,659.819723 577.02546,656.160043 584.955779,654.060574 C590.852183,652.509507 593.373362,647.092662 592.32792,641.709235 C589.373005,626.454385 584.737275,611.774897 582.269367,596.520047 C616.629204,598.495055 658.999393,611.485493 654.777349,564.001747 C650.985426,521.359483 633.655937,477.960119 624.206681,436.147308 C611.61596,380.486097 603.75621,324.156587 604.448983,267.171612 Z" id="Path" stroke-width="16" fill-rule="nonzero"></path>
            <path d="M547.432205,395.825468 C510.049062,383.242916 487.136675,348.206476 451.473681,332.089954 C439.24428,326.557336 428.540652,343.885073 440.823377,349.438454 C454.581131,355.640735 471.778816,368.166197 478.700424,373.507184 C485.622032,378.84817 488.41817,382.592203 491.392859,388.077388 C494.199019,393.251813 496.530482,402.000661 496.530482,408.702522 C496.797128,415.184677 496.797128,426.623074 499.357226,431.516528 C504.682292,441.69026 522.124854,437.818826 518.200334,427.056501 C517.777013,425.888706 509.248673,410.554795 519.309409,402.000661 C526.646877,406.49678 533.298943,412.297023 541.825723,415.184677 C554.70018,419.532701 560.172835,400.108015 547.436334,395.827104 L547.432205,395.825468 Z" id="Path" stroke-width="16" fill-rule="nonzero"></path>
            <path d="M182.197633,864.186563 C209.669508,831.246415 231.018576,807.393591 240.223765,760.26841 C247.857907,721.229043 246.949872,695.926516 242.477021,656.544246 C239.759717,632.662444 229.128981,594.386427 199.221588,589.850272 C176.275769,586.356873 180.657962,551.476898 181.949375,533.084145 C183.923514,504.736837 188.769669,476.584243 225.951245,491.180066 C234.133549,494.384065 237.538748,492.593998 240.223765,488.810688 C242.477021,484.882725 243.576788,476.415548 244.02069,472.568734 C255.61327,371.782517 226.448869,239.325062 349.804598,193.653346 C432.97329,162.866078 529.362603,196.197556 616.033605,196.722251 C629.650259,196.806388 629.640789,176.717505 616.033605,176.633933 C517.73128,176.014681 411.353322,141.646521 319.456403,184.552604 C207.499542,236.815315 233.41561,371.926399 223.263385,468.990642 C191.442118,459.644353 171.19363,473.177345 163.589793,506.468847 C157.845676,531.592168 149.602934,595.752271 179.894307,608.221744 C188.944526,611.943976 196.12478,607.558741 205.298975,615.592199 C215.111989,624.234587 217.893692,639.299102 220.466185,651.124984 C225.941258,676.362893 223.761095,700.618232 223.263385,726.205938 C221.992119,790.719284 199.221588,807.393591 163.987252,854.062279 C156.058513,864.564076 174.470078,874.720093 182.208223,864.185702 L182.197633,864.186563 Z" id="Path" stroke-width="16" fill-rule="nonzero"></path>
            <path d="M686.832856,106.012385 C672.788717,137.934607 624.234893,113.411552 603.816678,102.277834 C568.386207,82.9556367 536.576008,54.6970628 502.394819,35.0976885 C459.529546,10.5188904 386.153484,-1.92456307 340.432583,39.1163443 C328.721389,49.6166488 324.713818,61.047414 326.213753,71.4146737 C310.568995,63.1160047 295.408726,53.9448689 279.370698,46.3323187 C249.806581,32.2798888 194.448407,44.719577 176.345925,74.5932503 C156.519766,107.311182 199.436141,141.872126 231.706681,136.458226 C264.236245,131.014648 279.645213,89.8541704 243.811489,82.4650672 C230.540122,79.7233211 224.893208,98.9020692 238.194436,101.643986 C255.532752,105.2153 230.116733,116.029028 226.099696,117.268221 C209.60816,122.37535 201.256302,106.145335 196.456167,94.3649006 C185.107263,66.5269832 244.15743,56.8820885 257.832393,59.4508765 C283.722832,64.3314883 309.525495,85.866238 332.760284,97.1426371 C359.907983,110.314924 393.00121,132.184248 414.52363,120.129018 C438.696459,101.928412 443.176938,87.0109349 435.387674,72.9065606 C431.686378,66.2044558 414.627757,66.2545825 414.52363,74.5932503 C414.399255,87.2325057 405.598633,92.3427903 401.342966,97.3899639 C387.970915,99.4787672 356.879199,82.3506743 350.489632,77.5933251 C327.678233,60.6360839 384.703288,33.6680748 394.811282,30.719768 C451.771796,14.1821296 509.673445,71.7540327 555.970913,98.1156645 C595.377975,120.539682 679.072264,175.232179 707.20357,111.287952 C712.410572,99.4512296 691.976178,94.3443564 686.84301,106.010935 L686.832856,106.012385 Z" id="Path" stroke-width="16" fill-rule="nonzero"></path>
            <path d="M132.74164,5.27812006 C154.20671,-20.6427085 194.042427,-5.71189849 222.372868,0.636189371 C248.654742,6.52768543 276.426875,11.3476095 302.148716,1.1736091 C314.542798,-3.73703145 309.116084,-23.1478583 296.526292,-18.1631828 C242.081383,3.36714148 161.263993,-61.4224617 117.764328,-8.90924494 C109.438556,1.15039257 124.320516,15.442318 132.737671,5.27863598 L132.74164,5.27812006 Z" id="Path" stroke-width="16" fill-rule="nonzero"></path>
            <path d="M250.013877,163.153422 C175.535043,173.333214 100.787969,226.213425 66.5615281,290.07939 C45.7832154,328.859592 42.16283,393.10265 97.6670954,403.932216 C140.234781,412.23776 203.338331,339.105829 172.417608,305.223524 C137.185266,266.621945 74.243348,312.865056 109.112018,352.461143 C117.880556,362.421755 132.718032,348.102739 124.03031,338.233423 C120.245296,333.935257 118.759827,329.955409 118.90289,326.474437 C119.67186,307.764086 167.490758,303.466735 158.157881,341.621049 C153.184085,361.896068 117.578785,387.311464 95.6957006,383.044356 C59.4015732,375.962424 75.2569871,320.820516 84.7812402,300.234848 C112.655887,240.009516 189.064245,191.670992 255.625689,182.558624 C269.048885,180.724932 263.32307,161.339577 250.013877,163.153422 Z" id="Path" stroke-width="16" fill-rule="nonzero"></path>
            <path d="M149.966242,422.544291 C126.856586,491.545522 20.2069754,490.05957 -10.9710774,556.236975 C-16.4885592,567.953272 1.71890687,578.180172 7.28014131,566.349373 C39.0498881,498.938265 145.359297,502.482684 170.353415,427.869959 C174.484852,415.504526 154.083123,410.244289 149.97227,422.539642 L149.966242,422.544291 Z" id="Path" stroke-width="16" fill-rule="nonzero"></path>
            <path d="M106.302112,604.242554 C94.3994714,597.84216 83.7404802,615.273752 95.6224223,621.654 C104.627239,626.490676 108.909292,633.387293 98.9138677,639.781375 C86.9508555,647.428162 73.6200014,637.238095 67.491448,627.723839 C53.1567046,605.455658 75.9070402,577.361468 99.0682458,573.365923 C112.48017,571.072613 106.779736,551.638148 93.4488815,553.931198 C47.4666196,561.827868 22.3478302,624.880007 63.6745994,653.633924 C80.7217407,665.502967 103.37393,665.306691 118.328773,650.344192 C134.358226,634.259983 123.843695,613.653658 106.30194,604.244543 L106.302112,604.242554 Z" id="Path" stroke-width="16" fill-rule="nonzero"></path>
            <path d="M23.3503325,198.160789 C46.9978178,211.638747 79.1605058,204.49252 103.077547,196.01892 C115.746676,191.5307 110.262595,172.180429 97.4483207,176.722279 C78.3737827,183.476361 57.7294269,188.698587 37.7200827,182.531093 C15.4592554,175.663058 15.088616,148.592929 16.6541139,130.787642 C17.7846936,117.926647 -3.42607514,118.020179 -4.54663297,130.787642 C-6.82800923,156.758477 -1.95474901,183.737562 23.3498141,198.161132 L23.3503325,198.160789 Z" id="Path" stroke-width="16" fill-rule="nonzero"></path>
            <path d="M241.172962,560.594433 C255.089463,560.594433 255.089463,540.713718 241.172962,540.713718 C227.256461,540.713718 227.256461,560.594433 241.172962,560.594433 Z" id="Path" stroke-width="16" fill-rule="nonzero"></path>
        </g>
    </g>
</svg>
