<?xml version="1.0" encoding="UTF-8"?>
<svg width="1200px" height="1200px" viewBox="0 0 1200 1200" version="1.1" xmlns="http://www.w3.org/2000/svg" xmlns:xlink="http://www.w3.org/1999/xlink">
    <title>favicon-dark</title>
    <g id="favicon-dark" stroke="none" stroke-width="1" fill="none" fill-rule="evenodd">
        <rect id="Rectangle" fill="#282A33" x="50" y="50" width="1100" height="1100" rx="96"></rect>
        <g id="noun-person-1067044" transform="translate(269.7053, 100.2618)" fill="#E2A8AA" fill-rule="nonzero" stroke="#E2A8AA" stroke-width="16">
            <path d="M625.105384,436.193999 C612.506208,380.539384 604.640443,324.21472 605.333747,267.234646 C605.488504,254.275469 584.354641,254.285804 584.199617,267.234646 C583.281184,342.752191 598.006261,416.56619 616.206985,489.789373 C618.605729,499.431029 644.6686,576.267142 632.927226,580.366676 C617.878664,585.608136 587.98049,575.43802 571.280918,576.316147 C565.894768,576.605474 560.252656,580.69972 560.716868,586.372062 C562.17358,603.764936 566.886925,620.219913 570.711634,637.084844 C526.105091,647.624779 444.056713,658.827875 423.119809,614.77339 C417.508271,602.991537 399.308064,613.222457 404.858798,624.923181 C425.188523,667.639288 486.525643,670.447814 537.671632,663.594875 C547.777499,685.47226 570.287901,727.660423 534.869222,732.157853 C522.280381,733.749178 510.952405,736.373224 499.460792,741.405919 C474.501866,752.32997 455.537216,775.873007 439.321666,795.99431 C399.563079,845.374744 358.253387,909.79082 290.239884,868.039309 C289.990932,858.542343 275.739937,852.257827 271.036669,862.498393 C262.189083,881.761895 254.521405,900.127117 250.232397,920.851293 C246.720147,937.864358 253.435201,955.327855 250.37706,972.401207 C246.615824,993.475049 216.778109,966.520529 211.681252,961.218781 C201.521126,950.665066 191.63057,935.586361 189.759943,921.140672 C188.128311,908.44073 166.970497,908.306376 168.636148,921.140672 C172.875118,954.090243 203.142853,996.637547 240.536457,999.904255 C257.704546,1001.40136 271.107265,985.064976 271.985737,970.27565 C272.803249,956.405274 270.663551,942.652028 270.58957,928.771317 C270.515557,914.715773 276.295329,900.454391 282.465299,887.142102 C352.381296,928.700694 402.161348,876.477286 445.5165,821.286883 C473.544048,785.598547 496.55225,759.236651 544.051721,751.081507 C592.170428,742.812162 571.50051,690.838171 558.686023,660.219994 C568.691124,658.319223 577.889238,656.189618 585.825625,654.09033 C591.726542,652.539397 594.24965,647.123017 593.203407,641.740054 C590.246231,626.486516 585.606954,611.80829 583.137157,596.554752 C617.523288,598.529591 659.925902,611.518911 655.700626,564.039249 C651.905802,521.400654 634.563052,478.005023 625.106564,436.195808 L625.105384,436.193999 Z" id="Path"></path>
            <path d="M548.264965,395.904884 C510.830883,383.326378 487.887274,348.301203 452.175685,332.189863 C439.92962,326.659023 429.211406,343.98119 441.510868,349.532785 C455.287369,355.733071 467.163098,364.415987 478.696051,373.594292 C478.591762,376.312558 479.698628,388.555092 481.64315,390.903367 C486.491021,396.753815 490.706048,402.994408 494.252661,409.578638 C496.277969,414.695648 498.562253,419.69484 501.12584,424.586721 C506.458162,434.757181 524.359688,427.604443 520.42982,416.845578 C520.005923,415.678158 519.457559,405.127888 518.993261,403.980707 C526.340728,408.475381 534.112445,412.371144 542.650843,415.25787 C555.542843,419.604495 561.022955,400.186055 548.269099,395.906521 L548.264965,395.904884 Z" id="Path"></path>
            <path d="M178.927984,885.997247 C207.523954,847.036175 230.767277,807.233664 239.975725,760.12606 C247.612571,721.101256 246.704214,695.808166 242.22978,656.440585 C239.511513,632.567692 228.877013,594.305951 198.959029,589.771488 C176.005086,586.279392 180.388831,551.412427 181.680701,533.026535 C183.655539,504.6898 188.50341,476.547707 225.698152,491.138086 C233.883353,494.340889 237.289758,492.55149 239.975725,488.769592 C242.22978,484.843094 243.329936,476.379075 243.773995,472.533695 C255.37068,371.785071 226.195952,239.377023 349.595361,193.722342 C432.793503,162.946557 529.216947,196.265603 615.918639,196.790102 C629.540115,196.874208 629.530641,176.792818 615.918639,176.709277 C517.581506,176.090256 411.165879,141.734915 319.23642,184.624995 C207.239915,236.868212 233.16516,371.928899 223.00934,468.956938 C191.176805,459.614136 170.921147,473.14208 163.314617,506.421164 C157.568466,531.535114 149.322806,595.671286 179.624905,608.136107 C188.678329,611.856951 195.861125,607.473352 205.038569,615.503813 C214.855057,624.142978 217.637745,639.201874 220.21115,651.023344 C225.688161,676.25184 223.507227,700.498132 223.00934,726.076294 C221.737623,790.565577 199.147728,823.530172 160.711155,875.876739 C152.862357,886.514856 171.197693,896.526848 178.938578,885.996386 L178.927984,885.997247 Z" id="Path"></path>
            <path d="M638.575281,112.34679 C624.519737,144.292692 575.926482,119.751445 555.491685,108.609469 C520.032441,89.2729377 486.279327,67.9187706 448.817684,52.022633 C394.299915,28.8752962 330.646042,23.3438671 284.888012,64.4152192 C273.167307,74.9233129 269.156482,86.3625576 270.657634,96.7375079 C255.000172,88.4326828 239.827591,79.2547437 223.776538,71.6365464 C194.188412,57.5736923 138.785282,70.0226084 120.668099,99.9184423 C100.825839,132.660645 143.777067,167.247227 176.073813,161.829311 C208.629795,156.381694 224.051276,115.190683 188.188452,107.796099 C174.906307,105.052319 169.254807,124.245294 182.566837,126.989245 C199.919233,130.563208 174.482574,141.384957 170.462275,142.62507 C153.957346,147.735987 145.598705,131.493933 140.794672,119.70476 C129.436552,91.8461916 188.534673,82.1941422 202.220742,84.7648357 C228.132207,89.649068 253.955824,111.199792 277.209482,122.484557 C304.379227,135.666615 324.842323,142.62507 346.382222,130.560897 C370.574682,112.34679 379.906246,97.35048 358.069339,74.7758309 C351.694133,68.1813022 340.12785,73.4655624 340.023639,81.8104159 C339.899163,94.4590472 337.449976,102.754057 333.190853,107.804975 C319.807943,109.895328 301.347984,107.681621 294.953228,102.920743 C272.123304,85.9509223 329.194669,58.962908 339.310872,56.0124142 C396.317643,39.4625079 461.271999,78.0630241 507.607064,104.444211 C547.046129,126.884864 630.808387,181.617932 658.962537,117.62627 C664.173768,105.780767 643.722779,100.670106 638.585443,112.345339 L638.575281,112.34679 Z" id="Path"></path>
            <path d="M132.653206,35.3345326 C154.076714,9.3722546 193.835301,24.3269401 222.110888,30.6851791 C248.341874,36.5860961 276.060234,41.4137276 301.732272,31.2234582 C314.102357,26.3049651 308.686149,6.86309883 296.120734,11.8557452 C241.781243,33.4204982 161.120333,-31.4727087 117.704894,21.1244808 C109.395242,31.2002045 124.248387,45.5149838 132.649244,35.3350493 L132.653206,35.3345326 Z" id="Path"></path>
            <path d="M273.503796,161.053279 C198.894866,171.213405 124.017228,223.991456 89.731002,287.734037 C68.9163948,326.439319 65.2896855,390.558266 120.890903,401.36691 C163.532943,409.656408 226.746719,336.665761 195.771986,302.848915 C160.478102,264.32191 97.4262402,310.475684 132.355817,349.995275 C141.139671,359.936644 156.003065,345.64529 147.300168,335.795041 C143.508542,331.505179 142.020479,327.53302 142.163792,324.058772 C142.934104,305.384568 190.83653,301.095519 181.487351,339.176123 C176.504867,359.411972 140.837374,384.778268 118.916065,380.519403 C82.5585406,373.451153 98.4416499,318.415774 107.982539,297.869876 C135.905876,237.760894 212.447701,189.515755 279.125411,180.420992 C292.572053,178.590843 286.836237,159.242938 273.503796,161.053279 Z" id="Path"></path>
            <path d="M161.961427,416.299203 C138.852459,485.326394 32.206018,483.839882 1.02889203,550.042184 C-4.48842577,561.762888 13.718499,571.993636 19.2795682,560.158386 C51.0483705,492.721918 157.354619,496.26767 182.347994,421.626875 C186.479308,409.25679 166.078185,403.994573 161.967456,416.294553 L161.961427,416.299203 Z" id="Path"></path>
            <path d="M107.039733,593.311212 C95.1536688,586.936006 84.5095224,604.298995 96.3749165,610.654134 C105.367192,615.471775 109.643281,622.34125 99.6617779,628.710168 C87.7154267,636.326861 74.4031384,626.176898 68.2831202,616.700085 C53.9683409,594.51954 76.686992,566.535917 99.815941,562.556096 C113.209186,560.271812 107.516691,540.913831 94.2044029,543.197857 C48.2861805,551.06345 23.2023741,613.867445 64.4715874,642.5082 C81.4949872,654.330531 104.115628,654.135028 119.049644,639.231415 C135.056773,623.210506 124.556885,602.685278 107.039561,593.313192 L107.039733,593.311212 Z" id="Path"></path>
            <path d="M36.6156005,213.854584 C60.1887804,227.382184 92.2504066,220.209636 116.092296,211.704826 C128.721615,207.200076 123.254767,187.778535 110.480757,192.337113 C91.4661555,199.116071 70.8866686,204.357532 50.940198,198.167322 C28.7493188,191.27399 28.379844,164.104159 29.9404228,146.233292 C31.06745,133.324928 9.92332989,133.418804 8.80629309,146.233292 C6.53208539,172.299781 11.3900328,199.378234 36.6150837,213.854928 L36.6156005,213.854584 Z" id="Path"></path>
            <path d="M221.447728,567.379077 C235.069203,567.379077 235.069203,547.298252 221.447728,547.298252 C207.826252,547.298252 207.826252,567.379077 221.447728,567.379077 Z" id="Path"></path>
        </g>
    </g>
</svg>